G04 #@! TF.GenerationSoftware,KiCad,Pcbnew,5.1.4+dfsg1-1~bpo10+1*
G04 #@! TF.CreationDate,2020-12-25T00:52:37+00:00*
G04 #@! TF.ProjectId,Multi Watt Amplifier,4d756c74-6920-4576-9174-7420416d706c,rev?*
G04 #@! TF.SameCoordinates,Original*
G04 #@! TF.FileFunction,Legend,Bot*
G04 #@! TF.FilePolarity,Positive*
%FSLAX46Y46*%
G04 Gerber Fmt 4.6, Leading zero omitted, Abs format (unit mm)*
G04 Created by KiCad (PCBNEW 5.1.4+dfsg1-1~bpo10+1) date 2020-12-25 00:52:37*
%MOMM*%
%LPD*%
G04 APERTURE LIST*
%ADD10C,0.187500*%
%ADD11C,0.120000*%
%ADD12C,0.150000*%
G04 APERTURE END LIST*
D10*
X143531071Y-87236428D02*
X143566785Y-87343571D01*
X143566785Y-87522142D01*
X143531071Y-87593571D01*
X143495357Y-87629285D01*
X143423928Y-87665000D01*
X143352500Y-87665000D01*
X143281071Y-87629285D01*
X143245357Y-87593571D01*
X143209642Y-87522142D01*
X143173928Y-87379285D01*
X143138214Y-87307857D01*
X143102500Y-87272142D01*
X143031071Y-87236428D01*
X142959642Y-87236428D01*
X142888214Y-87272142D01*
X142852500Y-87307857D01*
X142816785Y-87379285D01*
X142816785Y-87557857D01*
X142852500Y-87665000D01*
X142816785Y-87879285D02*
X142816785Y-88307857D01*
X143566785Y-88093571D02*
X142816785Y-88093571D01*
X143352500Y-88522142D02*
X143352500Y-88879285D01*
X143566785Y-88450714D02*
X142816785Y-88700714D01*
X143566785Y-88950714D01*
X142816785Y-89557857D02*
X142816785Y-89200714D01*
X143173928Y-89165000D01*
X143138214Y-89200714D01*
X143102500Y-89272142D01*
X143102500Y-89450714D01*
X143138214Y-89522142D01*
X143173928Y-89557857D01*
X143245357Y-89593571D01*
X143423928Y-89593571D01*
X143495357Y-89557857D01*
X143531071Y-89522142D01*
X143566785Y-89450714D01*
X143566785Y-89272142D01*
X143531071Y-89200714D01*
X143495357Y-89165000D01*
X143066785Y-90236428D02*
X143566785Y-90236428D01*
X142781071Y-90057857D02*
X143316785Y-89879285D01*
X143316785Y-90343571D01*
X142816785Y-90772142D02*
X142816785Y-90843571D01*
X142852500Y-90915000D01*
X142888214Y-90950714D01*
X142959642Y-90986428D01*
X143102500Y-91022142D01*
X143281071Y-91022142D01*
X143423928Y-90986428D01*
X143495357Y-90950714D01*
X143531071Y-90915000D01*
X143566785Y-90843571D01*
X143566785Y-90772142D01*
X143531071Y-90700714D01*
X143495357Y-90665000D01*
X143423928Y-90629285D01*
X143281071Y-90593571D01*
X143102500Y-90593571D01*
X142959642Y-90629285D01*
X142888214Y-90665000D01*
X142852500Y-90700714D01*
X142816785Y-90772142D01*
X142781071Y-91879285D02*
X143745357Y-91236428D01*
X142816785Y-92022142D02*
X142816785Y-92450714D01*
X143566785Y-92236428D02*
X142816785Y-92236428D01*
X143566785Y-92700714D02*
X142816785Y-92700714D01*
X142816785Y-92879285D01*
X142852500Y-92986428D01*
X142923928Y-93057857D01*
X142995357Y-93093571D01*
X143138214Y-93129285D01*
X143245357Y-93129285D01*
X143388214Y-93093571D01*
X143459642Y-93057857D01*
X143531071Y-92986428D01*
X143566785Y-92879285D01*
X143566785Y-92700714D01*
X143352500Y-93415000D02*
X143352500Y-93772142D01*
X143566785Y-93343571D02*
X142816785Y-93593571D01*
X143566785Y-93843571D01*
X142816785Y-94022142D02*
X142816785Y-94522142D01*
X143566785Y-94200714D01*
X142888214Y-94772142D02*
X142852500Y-94807857D01*
X142816785Y-94879285D01*
X142816785Y-95057857D01*
X142852500Y-95129285D01*
X142888214Y-95165000D01*
X142959642Y-95200714D01*
X143031071Y-95200714D01*
X143138214Y-95165000D01*
X143566785Y-94736428D01*
X143566785Y-95200714D01*
X142816785Y-95843571D02*
X142816785Y-95700714D01*
X142852500Y-95629285D01*
X142888214Y-95593571D01*
X142995357Y-95522142D01*
X143138214Y-95486428D01*
X143423928Y-95486428D01*
X143495357Y-95522142D01*
X143531071Y-95557857D01*
X143566785Y-95629285D01*
X143566785Y-95772142D01*
X143531071Y-95843571D01*
X143495357Y-95879285D01*
X143423928Y-95915000D01*
X143245357Y-95915000D01*
X143173928Y-95879285D01*
X143138214Y-95843571D01*
X143102500Y-95772142D01*
X143102500Y-95629285D01*
X143138214Y-95557857D01*
X143173928Y-95522142D01*
X143245357Y-95486428D01*
X142816785Y-96557857D02*
X142816785Y-96415000D01*
X142852500Y-96343571D01*
X142888214Y-96307857D01*
X142995357Y-96236428D01*
X143138214Y-96200714D01*
X143423928Y-96200714D01*
X143495357Y-96236428D01*
X143531071Y-96272142D01*
X143566785Y-96343571D01*
X143566785Y-96486428D01*
X143531071Y-96557857D01*
X143495357Y-96593571D01*
X143423928Y-96629285D01*
X143245357Y-96629285D01*
X143173928Y-96593571D01*
X143138214Y-96557857D01*
X143102500Y-96486428D01*
X143102500Y-96343571D01*
X143138214Y-96272142D01*
X143173928Y-96236428D01*
X143245357Y-96200714D01*
X143352500Y-97486428D02*
X143352500Y-97843571D01*
X143566785Y-97415000D02*
X142816785Y-97665000D01*
X143566785Y-97915000D01*
X143566785Y-98165000D02*
X142816785Y-98165000D01*
X143352500Y-98415000D01*
X142816785Y-98665000D01*
X143566785Y-98665000D01*
X143566785Y-99022142D02*
X142816785Y-99022142D01*
X142816785Y-99307857D01*
X142852500Y-99379285D01*
X142888214Y-99415000D01*
X142959642Y-99450714D01*
X143066785Y-99450714D01*
X143138214Y-99415000D01*
X143173928Y-99379285D01*
X143209642Y-99307857D01*
X143209642Y-99022142D01*
X143566785Y-100129285D02*
X143566785Y-99772142D01*
X142816785Y-99772142D01*
X143566785Y-100379285D02*
X142816785Y-100379285D01*
X143173928Y-100986428D02*
X143173928Y-100736428D01*
X143566785Y-100736428D02*
X142816785Y-100736428D01*
X142816785Y-101093571D01*
X143566785Y-101379285D02*
X142816785Y-101379285D01*
X143173928Y-101736428D02*
X143173928Y-101986428D01*
X143566785Y-102093571D02*
X143566785Y-101736428D01*
X142816785Y-101736428D01*
X142816785Y-102093571D01*
X143566785Y-102843571D02*
X143209642Y-102593571D01*
X143566785Y-102415000D02*
X142816785Y-102415000D01*
X142816785Y-102700714D01*
X142852500Y-102772142D01*
X142888214Y-102807857D01*
X142959642Y-102843571D01*
X143066785Y-102843571D01*
X143138214Y-102807857D01*
X143173928Y-102772142D01*
X143209642Y-102700714D01*
X143209642Y-102415000D01*
X145165000Y-88450714D02*
X145129285Y-88415000D01*
X145022142Y-88343571D01*
X144950714Y-88307857D01*
X144843571Y-88272142D01*
X144665000Y-88236428D01*
X144522142Y-88236428D01*
X144343571Y-88272142D01*
X144236428Y-88307857D01*
X144165000Y-88343571D01*
X144057857Y-88415000D01*
X144022142Y-88450714D01*
X144807857Y-89165000D02*
X144843571Y-89129285D01*
X144879285Y-89022142D01*
X144879285Y-88950714D01*
X144843571Y-88843571D01*
X144772142Y-88772142D01*
X144700714Y-88736428D01*
X144557857Y-88700714D01*
X144450714Y-88700714D01*
X144307857Y-88736428D01*
X144236428Y-88772142D01*
X144165000Y-88843571D01*
X144129285Y-88950714D01*
X144129285Y-89022142D01*
X144165000Y-89129285D01*
X144200714Y-89165000D01*
X145165000Y-89415000D02*
X145129285Y-89450714D01*
X145022142Y-89522142D01*
X144950714Y-89557857D01*
X144843571Y-89593571D01*
X144665000Y-89629285D01*
X144522142Y-89629285D01*
X144343571Y-89593571D01*
X144236428Y-89557857D01*
X144165000Y-89522142D01*
X144057857Y-89450714D01*
X144022142Y-89415000D01*
X144200714Y-90522142D02*
X144165000Y-90557857D01*
X144129285Y-90629285D01*
X144129285Y-90807857D01*
X144165000Y-90879285D01*
X144200714Y-90915000D01*
X144272142Y-90950714D01*
X144343571Y-90950714D01*
X144450714Y-90915000D01*
X144879285Y-90486428D01*
X144879285Y-90950714D01*
X144129285Y-91415000D02*
X144129285Y-91486428D01*
X144165000Y-91557857D01*
X144200714Y-91593571D01*
X144272142Y-91629285D01*
X144415000Y-91665000D01*
X144593571Y-91665000D01*
X144736428Y-91629285D01*
X144807857Y-91593571D01*
X144843571Y-91557857D01*
X144879285Y-91486428D01*
X144879285Y-91415000D01*
X144843571Y-91343571D01*
X144807857Y-91307857D01*
X144736428Y-91272142D01*
X144593571Y-91236428D01*
X144415000Y-91236428D01*
X144272142Y-91272142D01*
X144200714Y-91307857D01*
X144165000Y-91343571D01*
X144129285Y-91415000D01*
X144200714Y-91950714D02*
X144165000Y-91986428D01*
X144129285Y-92057857D01*
X144129285Y-92236428D01*
X144165000Y-92307857D01*
X144200714Y-92343571D01*
X144272142Y-92379285D01*
X144343571Y-92379285D01*
X144450714Y-92343571D01*
X144879285Y-91915000D01*
X144879285Y-92379285D01*
X144879285Y-93093571D02*
X144879285Y-92665000D01*
X144879285Y-92879285D02*
X144129285Y-92879285D01*
X144236428Y-92807857D01*
X144307857Y-92736428D01*
X144343571Y-92665000D01*
X144593571Y-93415000D02*
X144593571Y-93986428D01*
X144129285Y-94486428D02*
X144129285Y-94557857D01*
X144165000Y-94629285D01*
X144200714Y-94665000D01*
X144272142Y-94700714D01*
X144415000Y-94736428D01*
X144593571Y-94736428D01*
X144736428Y-94700714D01*
X144807857Y-94665000D01*
X144843571Y-94629285D01*
X144879285Y-94557857D01*
X144879285Y-94486428D01*
X144843571Y-94415000D01*
X144807857Y-94379285D01*
X144736428Y-94343571D01*
X144593571Y-94307857D01*
X144415000Y-94307857D01*
X144272142Y-94343571D01*
X144200714Y-94379285D01*
X144165000Y-94415000D01*
X144129285Y-94486428D01*
X144879285Y-95450714D02*
X144879285Y-95022142D01*
X144879285Y-95236428D02*
X144129285Y-95236428D01*
X144236428Y-95165000D01*
X144307857Y-95093571D01*
X144343571Y-95022142D01*
X144593571Y-95772142D02*
X144593571Y-96343571D01*
X144879285Y-97093571D02*
X144879285Y-96665000D01*
X144879285Y-96879285D02*
X144129285Y-96879285D01*
X144236428Y-96807857D01*
X144307857Y-96736428D01*
X144343571Y-96665000D01*
X144879285Y-97807857D02*
X144879285Y-97379285D01*
X144879285Y-97593571D02*
X144129285Y-97593571D01*
X144236428Y-97522142D01*
X144307857Y-97450714D01*
X144343571Y-97379285D01*
X144129285Y-98593571D02*
X144879285Y-98843571D01*
X144129285Y-99093571D01*
X144879285Y-99736428D02*
X144879285Y-99307857D01*
X144879285Y-99522142D02*
X144129285Y-99522142D01*
X144236428Y-99450714D01*
X144307857Y-99379285D01*
X144343571Y-99307857D01*
X144807857Y-100057857D02*
X144843571Y-100093571D01*
X144879285Y-100057857D01*
X144843571Y-100022142D01*
X144807857Y-100057857D01*
X144879285Y-100057857D01*
X144129285Y-100557857D02*
X144129285Y-100629285D01*
X144165000Y-100700714D01*
X144200714Y-100736428D01*
X144272142Y-100772142D01*
X144415000Y-100807857D01*
X144593571Y-100807857D01*
X144736428Y-100772142D01*
X144807857Y-100736428D01*
X144843571Y-100700714D01*
X144879285Y-100629285D01*
X144879285Y-100557857D01*
X144843571Y-100486428D01*
X144807857Y-100450714D01*
X144736428Y-100415000D01*
X144593571Y-100379285D01*
X144415000Y-100379285D01*
X144272142Y-100415000D01*
X144200714Y-100450714D01*
X144165000Y-100486428D01*
X144129285Y-100557857D01*
X144807857Y-101129285D02*
X144843571Y-101165000D01*
X144879285Y-101129285D01*
X144843571Y-101093571D01*
X144807857Y-101129285D01*
X144879285Y-101129285D01*
X144129285Y-101629285D02*
X144129285Y-101700714D01*
X144165000Y-101772142D01*
X144200714Y-101807857D01*
X144272142Y-101843571D01*
X144415000Y-101879285D01*
X144593571Y-101879285D01*
X144736428Y-101843571D01*
X144807857Y-101807857D01*
X144843571Y-101772142D01*
X144879285Y-101700714D01*
X144879285Y-101629285D01*
X144843571Y-101557857D01*
X144807857Y-101522142D01*
X144736428Y-101486428D01*
X144593571Y-101450714D01*
X144415000Y-101450714D01*
X144272142Y-101486428D01*
X144200714Y-101522142D01*
X144165000Y-101557857D01*
X144129285Y-101629285D01*
X145441785Y-87611428D02*
X146191785Y-87790000D01*
X145656071Y-87932857D01*
X146191785Y-88075714D01*
X145441785Y-88254285D01*
X145441785Y-88468571D02*
X146191785Y-88647142D01*
X145656071Y-88790000D01*
X146191785Y-88932857D01*
X145441785Y-89111428D01*
X145441785Y-89325714D02*
X146191785Y-89504285D01*
X145656071Y-89647142D01*
X146191785Y-89790000D01*
X145441785Y-89968571D01*
X146120357Y-90254285D02*
X146156071Y-90290000D01*
X146191785Y-90254285D01*
X146156071Y-90218571D01*
X146120357Y-90254285D01*
X146191785Y-90254285D01*
X146156071Y-90575714D02*
X146191785Y-90682857D01*
X146191785Y-90861428D01*
X146156071Y-90932857D01*
X146120357Y-90968571D01*
X146048928Y-91004285D01*
X145977500Y-91004285D01*
X145906071Y-90968571D01*
X145870357Y-90932857D01*
X145834642Y-90861428D01*
X145798928Y-90718571D01*
X145763214Y-90647142D01*
X145727500Y-90611428D01*
X145656071Y-90575714D01*
X145584642Y-90575714D01*
X145513214Y-90611428D01*
X145477500Y-90647142D01*
X145441785Y-90718571D01*
X145441785Y-90897142D01*
X145477500Y-91004285D01*
X145834642Y-91468571D02*
X146191785Y-91468571D01*
X145441785Y-91218571D02*
X145834642Y-91468571D01*
X145441785Y-91718571D01*
X146156071Y-91932857D02*
X146191785Y-92040000D01*
X146191785Y-92218571D01*
X146156071Y-92290000D01*
X146120357Y-92325714D01*
X146048928Y-92361428D01*
X145977500Y-92361428D01*
X145906071Y-92325714D01*
X145870357Y-92290000D01*
X145834642Y-92218571D01*
X145798928Y-92075714D01*
X145763214Y-92004285D01*
X145727500Y-91968571D01*
X145656071Y-91932857D01*
X145584642Y-91932857D01*
X145513214Y-91968571D01*
X145477500Y-92004285D01*
X145441785Y-92075714D01*
X145441785Y-92254285D01*
X145477500Y-92361428D01*
X145441785Y-92575714D02*
X145441785Y-93004285D01*
X146191785Y-92790000D02*
X145441785Y-92790000D01*
X145798928Y-93254285D02*
X145798928Y-93504285D01*
X146191785Y-93611428D02*
X146191785Y-93254285D01*
X145441785Y-93254285D01*
X145441785Y-93611428D01*
X146191785Y-93932857D02*
X145441785Y-93932857D01*
X145977500Y-94182857D01*
X145441785Y-94432857D01*
X146191785Y-94432857D01*
X145441785Y-94790000D02*
X146048928Y-94790000D01*
X146120357Y-94825714D01*
X146156071Y-94861428D01*
X146191785Y-94932857D01*
X146191785Y-95075714D01*
X146156071Y-95147142D01*
X146120357Y-95182857D01*
X146048928Y-95218571D01*
X145441785Y-95218571D01*
X146191785Y-95575714D02*
X145441785Y-95575714D01*
X146191785Y-96004285D01*
X145441785Y-96004285D01*
X146191785Y-96361428D02*
X145441785Y-96361428D01*
X146263214Y-97218571D02*
X146227500Y-97147142D01*
X146156071Y-97075714D01*
X146048928Y-96968571D01*
X146013214Y-96897142D01*
X146013214Y-96825714D01*
X146191785Y-96861428D02*
X146156071Y-96790000D01*
X146084642Y-96718571D01*
X145941785Y-96682857D01*
X145691785Y-96682857D01*
X145548928Y-96718571D01*
X145477500Y-96790000D01*
X145441785Y-96861428D01*
X145441785Y-97004285D01*
X145477500Y-97075714D01*
X145548928Y-97147142D01*
X145691785Y-97182857D01*
X145941785Y-97182857D01*
X146084642Y-97147142D01*
X146156071Y-97075714D01*
X146191785Y-97004285D01*
X146191785Y-96861428D01*
X145441785Y-97504285D02*
X146048928Y-97504285D01*
X146120357Y-97540000D01*
X146156071Y-97575714D01*
X146191785Y-97647142D01*
X146191785Y-97790000D01*
X146156071Y-97861428D01*
X146120357Y-97897142D01*
X146048928Y-97932857D01*
X145441785Y-97932857D01*
X145798928Y-98290000D02*
X145798928Y-98540000D01*
X146191785Y-98647142D02*
X146191785Y-98290000D01*
X145441785Y-98290000D01*
X145441785Y-98647142D01*
X146120357Y-98968571D02*
X146156071Y-99004285D01*
X146191785Y-98968571D01*
X146156071Y-98932857D01*
X146120357Y-98968571D01*
X146191785Y-98968571D01*
X146120357Y-99754285D02*
X146156071Y-99718571D01*
X146191785Y-99611428D01*
X146191785Y-99540000D01*
X146156071Y-99432857D01*
X146084642Y-99361428D01*
X146013214Y-99325714D01*
X145870357Y-99290000D01*
X145763214Y-99290000D01*
X145620357Y-99325714D01*
X145548928Y-99361428D01*
X145477500Y-99432857D01*
X145441785Y-99540000D01*
X145441785Y-99611428D01*
X145477500Y-99718571D01*
X145513214Y-99754285D01*
X145441785Y-100218571D02*
X145441785Y-100361428D01*
X145477500Y-100432857D01*
X145548928Y-100504285D01*
X145691785Y-100540000D01*
X145941785Y-100540000D01*
X146084642Y-100504285D01*
X146156071Y-100432857D01*
X146191785Y-100361428D01*
X146191785Y-100218571D01*
X146156071Y-100147142D01*
X146084642Y-100075714D01*
X145941785Y-100040000D01*
X145691785Y-100040000D01*
X145548928Y-100075714D01*
X145477500Y-100147142D01*
X145441785Y-100218571D01*
X146120357Y-100861428D02*
X146156071Y-100897142D01*
X146191785Y-100861428D01*
X146156071Y-100825714D01*
X146120357Y-100861428D01*
X146191785Y-100861428D01*
X145441785Y-101218571D02*
X146048928Y-101218571D01*
X146120357Y-101254285D01*
X146156071Y-101290000D01*
X146191785Y-101361428D01*
X146191785Y-101504285D01*
X146156071Y-101575714D01*
X146120357Y-101611428D01*
X146048928Y-101647142D01*
X145441785Y-101647142D01*
X146191785Y-102004285D02*
X145441785Y-102004285D01*
X146191785Y-102432857D02*
X145763214Y-102111428D01*
X145441785Y-102432857D02*
X145870357Y-102004285D01*
D11*
X160630000Y-84200000D02*
G75*
G03X161330000Y-84900000I700000J0D01*
G01*
X161930000Y-84900000D02*
G75*
G03X162630000Y-84200000I0J700000D01*
G01*
X162630000Y-82800000D02*
G75*
G03X161930000Y-82100000I-700000J0D01*
G01*
X161330000Y-82100000D02*
G75*
G03X160630000Y-82800000I0J-700000D01*
G01*
X161930000Y-82100000D02*
X161330000Y-82100000D01*
X162630000Y-84200000D02*
X162630000Y-82800000D01*
X161330000Y-84900000D02*
X161930000Y-84900000D01*
X160630000Y-82800000D02*
X160630000Y-84200000D01*
X167760000Y-81700000D02*
G75*
G03X167760000Y-81700000I-1200000J0D01*
G01*
D12*
X163192380Y-82676666D02*
X163906666Y-82676666D01*
X164049523Y-82629047D01*
X164144761Y-82533809D01*
X164192380Y-82390952D01*
X164192380Y-82295714D01*
X164192380Y-83152857D02*
X163192380Y-83152857D01*
X163192380Y-83533809D01*
X163240000Y-83629047D01*
X163287619Y-83676666D01*
X163382857Y-83724285D01*
X163525714Y-83724285D01*
X163620952Y-83676666D01*
X163668571Y-83629047D01*
X163716190Y-83533809D01*
X163716190Y-83152857D01*
X163192380Y-84057619D02*
X163192380Y-84676666D01*
X163573333Y-84343333D01*
X163573333Y-84486190D01*
X163620952Y-84581428D01*
X163668571Y-84629047D01*
X163763809Y-84676666D01*
X164001904Y-84676666D01*
X164097142Y-84629047D01*
X164144761Y-84581428D01*
X164192380Y-84486190D01*
X164192380Y-84200476D01*
X164144761Y-84105238D01*
X164097142Y-84057619D01*
X164384761Y-80998571D02*
X164241904Y-81046190D01*
X164194285Y-81093809D01*
X164146666Y-81189047D01*
X164146666Y-81331904D01*
X164194285Y-81427142D01*
X164241904Y-81474761D01*
X164337142Y-81522380D01*
X164718095Y-81522380D01*
X164718095Y-80522380D01*
X164384761Y-80522380D01*
X164289523Y-80570000D01*
X164241904Y-80617619D01*
X164194285Y-80712857D01*
X164194285Y-80808095D01*
X164241904Y-80903333D01*
X164289523Y-80950952D01*
X164384761Y-80998571D01*
X164718095Y-80998571D01*
X163146666Y-81427142D02*
X163194285Y-81474761D01*
X163337142Y-81522380D01*
X163432380Y-81522380D01*
X163575238Y-81474761D01*
X163670476Y-81379523D01*
X163718095Y-81284285D01*
X163765714Y-81093809D01*
X163765714Y-80950952D01*
X163718095Y-80760476D01*
X163670476Y-80665238D01*
X163575238Y-80570000D01*
X163432380Y-80522380D01*
X163337142Y-80522380D01*
X163194285Y-80570000D01*
X163146666Y-80617619D01*
X162289523Y-80855714D02*
X162289523Y-81522380D01*
X162718095Y-80855714D02*
X162718095Y-81379523D01*
X162670476Y-81474761D01*
X162575238Y-81522380D01*
X162432380Y-81522380D01*
X162337142Y-81474761D01*
X162289523Y-81427142D01*
X161289523Y-80570000D02*
X161384761Y-80522380D01*
X161527619Y-80522380D01*
X161670476Y-80570000D01*
X161765714Y-80665238D01*
X161813333Y-80760476D01*
X161860952Y-80950952D01*
X161860952Y-81093809D01*
X161813333Y-81284285D01*
X161765714Y-81379523D01*
X161670476Y-81474761D01*
X161527619Y-81522380D01*
X161432380Y-81522380D01*
X161289523Y-81474761D01*
X161241904Y-81427142D01*
X161241904Y-81093809D01*
X161432380Y-81093809D01*
X160813333Y-81522380D02*
X160813333Y-80522380D01*
X160241904Y-81522380D01*
X160241904Y-80522380D01*
X159765714Y-81522380D02*
X159765714Y-80522380D01*
X159527619Y-80522380D01*
X159384761Y-80570000D01*
X159289523Y-80665238D01*
X159241904Y-80760476D01*
X159194285Y-80950952D01*
X159194285Y-81093809D01*
X159241904Y-81284285D01*
X159289523Y-81379523D01*
X159384761Y-81474761D01*
X159527619Y-81522380D01*
X159765714Y-81522380D01*
X170041904Y-81472380D02*
X170041904Y-80472380D01*
X170041904Y-80948571D02*
X169470476Y-80948571D01*
X169470476Y-81472380D02*
X169470476Y-80472380D01*
X169041904Y-80567619D02*
X168994285Y-80520000D01*
X168899047Y-80472380D01*
X168660952Y-80472380D01*
X168565714Y-80520000D01*
X168518095Y-80567619D01*
X168470476Y-80662857D01*
X168470476Y-80758095D01*
X168518095Y-80900952D01*
X169089523Y-81472380D01*
X168470476Y-81472380D01*
M02*
