G04 #@! TF.GenerationSoftware,KiCad,Pcbnew,5.1.4+dfsg1-1~bpo10+1*
G04 #@! TF.CreationDate,2020-12-25T00:52:37+00:00*
G04 #@! TF.ProjectId,Multi Watt Amplifier,4d756c74-6920-4576-9174-7420416d706c,rev?*
G04 #@! TF.SameCoordinates,Original*
G04 #@! TF.FileFunction,Legend,Top*
G04 #@! TF.FilePolarity,Positive*
%FSLAX46Y46*%
G04 Gerber Fmt 4.6, Leading zero omitted, Abs format (unit mm)*
G04 Created by KiCad (PCBNEW 5.1.4+dfsg1-1~bpo10+1) date 2020-12-25 00:52:37*
%MOMM*%
%LPD*%
G04 APERTURE LIST*
%ADD10C,0.120000*%
%ADD11C,0.150000*%
G04 APERTURE END LIST*
D10*
X156930000Y-105020000D02*
G75*
G02X156230000Y-104320000I0J700000D01*
G01*
X156230000Y-103720000D02*
G75*
G02X156930000Y-103020000I700000J0D01*
G01*
X158330000Y-103020000D02*
G75*
G02X159030000Y-103720000I0J-700000D01*
G01*
X159030000Y-104320000D02*
G75*
G02X158330000Y-105020000I-700000J0D01*
G01*
X159030000Y-103720000D02*
X159030000Y-104320000D01*
X156930000Y-103020000D02*
X158330000Y-103020000D01*
X156230000Y-104320000D02*
X156230000Y-103720000D01*
X158330000Y-105020000D02*
X156930000Y-105020000D01*
X168000000Y-88340000D02*
G75*
G03X168000000Y-88340000I-6370000J0D01*
G01*
X161630000Y-94670000D02*
X161630000Y-82010000D01*
X161590000Y-94670000D02*
X161590000Y-82010000D01*
X161550000Y-94670000D02*
X161550000Y-82010000D01*
X161510000Y-94669000D02*
X161510000Y-82011000D01*
X161470000Y-94668000D02*
X161470000Y-82012000D01*
X161430000Y-94667000D02*
X161430000Y-82013000D01*
X161390000Y-94666000D02*
X161390000Y-82014000D01*
X161350000Y-94664000D02*
X161350000Y-82016000D01*
X161310000Y-94662000D02*
X161310000Y-82018000D01*
X161270000Y-94660000D02*
X161270000Y-82020000D01*
X161230000Y-94658000D02*
X161230000Y-82022000D01*
X161190000Y-94655000D02*
X161190000Y-82025000D01*
X161150000Y-94652000D02*
X161150000Y-82028000D01*
X161110000Y-94649000D02*
X161110000Y-82031000D01*
X161070000Y-94646000D02*
X161070000Y-82034000D01*
X161030000Y-94642000D02*
X161030000Y-82038000D01*
X160990000Y-94638000D02*
X160990000Y-82042000D01*
X160950000Y-94634000D02*
X160950000Y-82046000D01*
X160909000Y-94630000D02*
X160909000Y-82050000D01*
X160869000Y-94625000D02*
X160869000Y-82055000D01*
X160829000Y-94620000D02*
X160829000Y-82060000D01*
X160789000Y-94615000D02*
X160789000Y-82065000D01*
X160749000Y-94609000D02*
X160749000Y-82071000D01*
X160709000Y-94604000D02*
X160709000Y-82076000D01*
X160669000Y-94598000D02*
X160669000Y-82082000D01*
X160629000Y-94592000D02*
X160629000Y-82088000D01*
X160589000Y-94585000D02*
X160589000Y-82095000D01*
X160549000Y-94578000D02*
X160549000Y-89780000D01*
X160549000Y-86900000D02*
X160549000Y-82102000D01*
X160509000Y-94571000D02*
X160509000Y-89780000D01*
X160509000Y-86900000D02*
X160509000Y-82109000D01*
X160469000Y-94564000D02*
X160469000Y-89780000D01*
X160469000Y-86900000D02*
X160469000Y-82116000D01*
X160429000Y-94556000D02*
X160429000Y-89780000D01*
X160429000Y-86900000D02*
X160429000Y-82124000D01*
X160389000Y-94549000D02*
X160389000Y-89780000D01*
X160389000Y-86900000D02*
X160389000Y-82131000D01*
X160349000Y-94541000D02*
X160349000Y-89780000D01*
X160349000Y-86900000D02*
X160349000Y-82139000D01*
X160309000Y-94532000D02*
X160309000Y-89780000D01*
X160309000Y-86900000D02*
X160309000Y-82148000D01*
X160269000Y-94524000D02*
X160269000Y-89780000D01*
X160269000Y-86900000D02*
X160269000Y-82156000D01*
X160229000Y-94515000D02*
X160229000Y-89780000D01*
X160229000Y-86900000D02*
X160229000Y-82165000D01*
X160189000Y-94506000D02*
X160189000Y-89780000D01*
X160189000Y-86900000D02*
X160189000Y-82174000D01*
X160149000Y-94496000D02*
X160149000Y-89780000D01*
X160149000Y-86900000D02*
X160149000Y-82184000D01*
X160109000Y-94486000D02*
X160109000Y-89780000D01*
X160109000Y-86900000D02*
X160109000Y-82194000D01*
X160069000Y-94477000D02*
X160069000Y-89780000D01*
X160069000Y-86900000D02*
X160069000Y-82203000D01*
X160029000Y-94466000D02*
X160029000Y-89780000D01*
X160029000Y-86900000D02*
X160029000Y-82214000D01*
X159989000Y-94456000D02*
X159989000Y-89780000D01*
X159989000Y-86900000D02*
X159989000Y-82224000D01*
X159949000Y-94445000D02*
X159949000Y-89780000D01*
X159949000Y-86900000D02*
X159949000Y-82235000D01*
X159909000Y-94434000D02*
X159909000Y-89780000D01*
X159909000Y-86900000D02*
X159909000Y-82246000D01*
X159869000Y-94423000D02*
X159869000Y-89780000D01*
X159869000Y-86900000D02*
X159869000Y-82257000D01*
X159829000Y-94411000D02*
X159829000Y-89780000D01*
X159829000Y-86900000D02*
X159829000Y-82269000D01*
X159789000Y-94399000D02*
X159789000Y-89780000D01*
X159789000Y-86900000D02*
X159789000Y-82281000D01*
X159749000Y-94387000D02*
X159749000Y-89780000D01*
X159749000Y-86900000D02*
X159749000Y-82293000D01*
X159709000Y-94374000D02*
X159709000Y-89780000D01*
X159709000Y-86900000D02*
X159709000Y-82306000D01*
X159669000Y-94361000D02*
X159669000Y-89780000D01*
X159669000Y-86900000D02*
X159669000Y-82319000D01*
X159629000Y-94348000D02*
X159629000Y-89780000D01*
X159629000Y-86900000D02*
X159629000Y-82332000D01*
X159589000Y-94335000D02*
X159589000Y-89780000D01*
X159589000Y-86900000D02*
X159589000Y-82345000D01*
X159549000Y-94321000D02*
X159549000Y-89780000D01*
X159549000Y-86900000D02*
X159549000Y-82359000D01*
X159509000Y-94307000D02*
X159509000Y-89780000D01*
X159509000Y-86900000D02*
X159509000Y-82373000D01*
X159469000Y-94293000D02*
X159469000Y-89780000D01*
X159469000Y-86900000D02*
X159469000Y-82387000D01*
X159429000Y-94279000D02*
X159429000Y-89780000D01*
X159429000Y-86900000D02*
X159429000Y-82401000D01*
X159389000Y-94264000D02*
X159389000Y-89780000D01*
X159389000Y-86900000D02*
X159389000Y-82416000D01*
X159349000Y-94248000D02*
X159349000Y-89780000D01*
X159349000Y-86900000D02*
X159349000Y-82432000D01*
X159309000Y-94233000D02*
X159309000Y-89780000D01*
X159309000Y-86900000D02*
X159309000Y-82447000D01*
X159269000Y-94217000D02*
X159269000Y-89780000D01*
X159269000Y-86900000D02*
X159269000Y-82463000D01*
X159229000Y-94201000D02*
X159229000Y-89780000D01*
X159229000Y-86900000D02*
X159229000Y-82479000D01*
X159189000Y-94185000D02*
X159189000Y-89780000D01*
X159189000Y-86900000D02*
X159189000Y-82495000D01*
X159149000Y-94168000D02*
X159149000Y-89780000D01*
X159149000Y-86900000D02*
X159149000Y-82512000D01*
X159109000Y-94151000D02*
X159109000Y-89780000D01*
X159109000Y-86900000D02*
X159109000Y-82529000D01*
X159069000Y-94133000D02*
X159069000Y-89780000D01*
X159069000Y-86900000D02*
X159069000Y-82547000D01*
X159029000Y-94116000D02*
X159029000Y-89780000D01*
X159029000Y-86900000D02*
X159029000Y-82564000D01*
X158989000Y-94098000D02*
X158989000Y-89780000D01*
X158989000Y-86900000D02*
X158989000Y-82582000D01*
X158949000Y-94079000D02*
X158949000Y-89780000D01*
X158949000Y-86900000D02*
X158949000Y-82601000D01*
X158909000Y-94061000D02*
X158909000Y-89780000D01*
X158909000Y-86900000D02*
X158909000Y-82619000D01*
X158869000Y-94042000D02*
X158869000Y-89780000D01*
X158869000Y-86900000D02*
X158869000Y-82638000D01*
X158829000Y-94022000D02*
X158829000Y-89780000D01*
X158829000Y-86900000D02*
X158829000Y-82658000D01*
X158789000Y-94002000D02*
X158789000Y-89780000D01*
X158789000Y-86900000D02*
X158789000Y-82678000D01*
X158749000Y-93982000D02*
X158749000Y-89780000D01*
X158749000Y-86900000D02*
X158749000Y-82698000D01*
X158709000Y-93962000D02*
X158709000Y-89780000D01*
X158709000Y-86900000D02*
X158709000Y-82718000D01*
X158669000Y-93941000D02*
X158669000Y-89780000D01*
X158669000Y-86900000D02*
X158669000Y-82739000D01*
X158629000Y-93920000D02*
X158629000Y-89780000D01*
X158629000Y-86900000D02*
X158629000Y-82760000D01*
X158589000Y-93898000D02*
X158589000Y-89780000D01*
X158589000Y-86900000D02*
X158589000Y-82782000D01*
X158549000Y-93876000D02*
X158549000Y-89780000D01*
X158549000Y-86900000D02*
X158549000Y-82804000D01*
X158509000Y-93854000D02*
X158509000Y-89780000D01*
X158509000Y-86900000D02*
X158509000Y-82826000D01*
X158469000Y-93831000D02*
X158469000Y-89780000D01*
X158469000Y-86900000D02*
X158469000Y-82849000D01*
X158429000Y-93808000D02*
X158429000Y-89780000D01*
X158429000Y-86900000D02*
X158429000Y-82872000D01*
X158389000Y-93785000D02*
X158389000Y-89780000D01*
X158389000Y-86900000D02*
X158389000Y-82895000D01*
X158349000Y-93761000D02*
X158349000Y-89780000D01*
X158349000Y-86900000D02*
X158349000Y-82919000D01*
X158309000Y-93737000D02*
X158309000Y-89780000D01*
X158309000Y-86900000D02*
X158309000Y-82943000D01*
X158269000Y-93712000D02*
X158269000Y-89780000D01*
X158269000Y-86900000D02*
X158269000Y-82968000D01*
X158229000Y-93687000D02*
X158229000Y-89780000D01*
X158229000Y-86900000D02*
X158229000Y-82993000D01*
X158189000Y-93662000D02*
X158189000Y-89780000D01*
X158189000Y-86900000D02*
X158189000Y-83018000D01*
X158149000Y-93636000D02*
X158149000Y-89780000D01*
X158149000Y-86900000D02*
X158149000Y-83044000D01*
X158109000Y-93610000D02*
X158109000Y-89780000D01*
X158109000Y-86900000D02*
X158109000Y-83070000D01*
X158069000Y-93583000D02*
X158069000Y-89780000D01*
X158069000Y-86900000D02*
X158069000Y-83097000D01*
X158029000Y-93556000D02*
X158029000Y-89780000D01*
X158029000Y-86900000D02*
X158029000Y-83124000D01*
X157989000Y-93528000D02*
X157989000Y-89780000D01*
X157989000Y-86900000D02*
X157989000Y-83152000D01*
X157949000Y-93500000D02*
X157949000Y-89780000D01*
X157949000Y-86900000D02*
X157949000Y-83180000D01*
X157909000Y-93471000D02*
X157909000Y-89780000D01*
X157909000Y-86900000D02*
X157909000Y-83209000D01*
X157869000Y-93442000D02*
X157869000Y-89780000D01*
X157869000Y-86900000D02*
X157869000Y-83238000D01*
X157829000Y-93413000D02*
X157829000Y-89780000D01*
X157829000Y-86900000D02*
X157829000Y-83267000D01*
X157789000Y-93383000D02*
X157789000Y-89780000D01*
X157789000Y-86900000D02*
X157789000Y-83297000D01*
X157749000Y-93352000D02*
X157749000Y-89780000D01*
X157749000Y-86900000D02*
X157749000Y-83328000D01*
X157709000Y-93322000D02*
X157709000Y-89780000D01*
X157709000Y-86900000D02*
X157709000Y-83358000D01*
X157669000Y-93290000D02*
X157669000Y-83390000D01*
X157629000Y-93258000D02*
X157629000Y-83422000D01*
X157589000Y-93225000D02*
X157589000Y-83455000D01*
X157549000Y-93192000D02*
X157549000Y-83488000D01*
X157509000Y-93159000D02*
X157509000Y-83521000D01*
X157469000Y-93125000D02*
X157469000Y-83555000D01*
X157429000Y-93090000D02*
X157429000Y-83590000D01*
X157389000Y-93054000D02*
X157389000Y-83626000D01*
X157349000Y-93018000D02*
X157349000Y-83662000D01*
X157309000Y-92982000D02*
X157309000Y-83698000D01*
X157269000Y-92945000D02*
X157269000Y-83735000D01*
X157229000Y-92907000D02*
X157229000Y-83773000D01*
X157189000Y-92868000D02*
X157189000Y-83812000D01*
X157149000Y-92829000D02*
X157149000Y-83851000D01*
X157109000Y-92789000D02*
X157109000Y-83891000D01*
X157069000Y-92748000D02*
X157069000Y-83932000D01*
X157029000Y-92707000D02*
X157029000Y-83973000D01*
X156989000Y-92665000D02*
X156989000Y-84015000D01*
X156949000Y-92622000D02*
X156949000Y-84058000D01*
X156909000Y-92578000D02*
X156909000Y-84102000D01*
X156869000Y-92534000D02*
X156869000Y-84146000D01*
X156829000Y-92488000D02*
X156829000Y-84192000D01*
X156789000Y-92442000D02*
X156789000Y-84238000D01*
X156749000Y-92395000D02*
X156749000Y-84285000D01*
X156709000Y-92347000D02*
X156709000Y-84333000D01*
X156669000Y-92297000D02*
X156669000Y-84383000D01*
X156629000Y-92247000D02*
X156629000Y-84433000D01*
X156589000Y-92196000D02*
X156589000Y-84484000D01*
X156549000Y-92144000D02*
X156549000Y-84536000D01*
X156509000Y-92090000D02*
X156509000Y-84590000D01*
X156469000Y-92036000D02*
X156469000Y-84644000D01*
X156429000Y-91980000D02*
X156429000Y-84700000D01*
X156389000Y-91923000D02*
X156389000Y-84757000D01*
X156349000Y-91864000D02*
X156349000Y-84816000D01*
X156309000Y-91804000D02*
X156309000Y-84876000D01*
X156269000Y-91742000D02*
X156269000Y-84938000D01*
X156229000Y-91679000D02*
X156229000Y-85001000D01*
X156189000Y-91615000D02*
X156189000Y-85065000D01*
X156149000Y-91548000D02*
X156149000Y-85132000D01*
X156109000Y-91480000D02*
X156109000Y-85200000D01*
X156069000Y-91409000D02*
X156069000Y-85271000D01*
X156029000Y-91336000D02*
X156029000Y-85344000D01*
X155989000Y-91261000D02*
X155989000Y-85419000D01*
X155949000Y-91184000D02*
X155949000Y-85496000D01*
X155909000Y-91104000D02*
X155909000Y-85576000D01*
X155869000Y-91021000D02*
X155869000Y-85659000D01*
X155829000Y-90934000D02*
X155829000Y-85746000D01*
X155789000Y-90844000D02*
X155789000Y-85836000D01*
X155749000Y-90750000D02*
X155749000Y-85930000D01*
X155709000Y-90652000D02*
X155709000Y-86028000D01*
X155669000Y-90549000D02*
X155669000Y-86131000D01*
X155629000Y-90440000D02*
X155629000Y-86240000D01*
X155589000Y-90324000D02*
X155589000Y-86356000D01*
X155549000Y-90201000D02*
X155549000Y-86479000D01*
X155509000Y-90068000D02*
X155509000Y-86612000D01*
X155469000Y-89923000D02*
X155469000Y-86757000D01*
X155429000Y-89762000D02*
X155429000Y-86918000D01*
X155389000Y-89581000D02*
X155389000Y-87099000D01*
X155349000Y-89368000D02*
X155349000Y-87312000D01*
X155309000Y-89097000D02*
X155309000Y-87583000D01*
X155269000Y-88657000D02*
X155269000Y-88023000D01*
X168447082Y-91915000D02*
X167197082Y-91915000D01*
X167822082Y-92540000D02*
X167822082Y-91290000D01*
X166400000Y-98020000D02*
X161160000Y-98020000D01*
X166400000Y-95280000D02*
X161160000Y-95280000D01*
X166400000Y-98020000D02*
X166400000Y-97705000D01*
X166400000Y-95595000D02*
X166400000Y-95280000D01*
X161160000Y-98020000D02*
X161160000Y-97705000D01*
X161160000Y-95595000D02*
X161160000Y-95280000D01*
X161160000Y-103405000D02*
X161160000Y-103090000D01*
X161160000Y-105830000D02*
X161160000Y-105515000D01*
X166400000Y-103405000D02*
X166400000Y-103090000D01*
X166400000Y-105830000D02*
X166400000Y-105515000D01*
X166400000Y-103090000D02*
X161160000Y-103090000D01*
X166400000Y-105830000D02*
X161160000Y-105830000D01*
X171180000Y-83230000D02*
X171180000Y-88470000D01*
X168440000Y-83230000D02*
X168440000Y-88470000D01*
X171180000Y-83230000D02*
X170865000Y-83230000D01*
X168755000Y-83230000D02*
X168440000Y-83230000D01*
X171180000Y-88470000D02*
X170865000Y-88470000D01*
X168755000Y-88470000D02*
X168440000Y-88470000D01*
X165340000Y-112570000D02*
G75*
G03X165340000Y-112570000I-2620000J0D01*
G01*
X162720000Y-115150000D02*
X162720000Y-109990000D01*
X162680000Y-115150000D02*
X162680000Y-109990000D01*
X162640000Y-115149000D02*
X162640000Y-109991000D01*
X162600000Y-115148000D02*
X162600000Y-109992000D01*
X162560000Y-115146000D02*
X162560000Y-109994000D01*
X162520000Y-115143000D02*
X162520000Y-109997000D01*
X162480000Y-115139000D02*
X162480000Y-113610000D01*
X162480000Y-111530000D02*
X162480000Y-110001000D01*
X162440000Y-115135000D02*
X162440000Y-113610000D01*
X162440000Y-111530000D02*
X162440000Y-110005000D01*
X162400000Y-115131000D02*
X162400000Y-113610000D01*
X162400000Y-111530000D02*
X162400000Y-110009000D01*
X162360000Y-115126000D02*
X162360000Y-113610000D01*
X162360000Y-111530000D02*
X162360000Y-110014000D01*
X162320000Y-115120000D02*
X162320000Y-113610000D01*
X162320000Y-111530000D02*
X162320000Y-110020000D01*
X162280000Y-115113000D02*
X162280000Y-113610000D01*
X162280000Y-111530000D02*
X162280000Y-110027000D01*
X162240000Y-115106000D02*
X162240000Y-113610000D01*
X162240000Y-111530000D02*
X162240000Y-110034000D01*
X162200000Y-115098000D02*
X162200000Y-113610000D01*
X162200000Y-111530000D02*
X162200000Y-110042000D01*
X162160000Y-115090000D02*
X162160000Y-113610000D01*
X162160000Y-111530000D02*
X162160000Y-110050000D01*
X162120000Y-115081000D02*
X162120000Y-113610000D01*
X162120000Y-111530000D02*
X162120000Y-110059000D01*
X162080000Y-115071000D02*
X162080000Y-113610000D01*
X162080000Y-111530000D02*
X162080000Y-110069000D01*
X162040000Y-115061000D02*
X162040000Y-113610000D01*
X162040000Y-111530000D02*
X162040000Y-110079000D01*
X161999000Y-115050000D02*
X161999000Y-113610000D01*
X161999000Y-111530000D02*
X161999000Y-110090000D01*
X161959000Y-115038000D02*
X161959000Y-113610000D01*
X161959000Y-111530000D02*
X161959000Y-110102000D01*
X161919000Y-115025000D02*
X161919000Y-113610000D01*
X161919000Y-111530000D02*
X161919000Y-110115000D01*
X161879000Y-115012000D02*
X161879000Y-113610000D01*
X161879000Y-111530000D02*
X161879000Y-110128000D01*
X161839000Y-114998000D02*
X161839000Y-113610000D01*
X161839000Y-111530000D02*
X161839000Y-110142000D01*
X161799000Y-114984000D02*
X161799000Y-113610000D01*
X161799000Y-111530000D02*
X161799000Y-110156000D01*
X161759000Y-114968000D02*
X161759000Y-113610000D01*
X161759000Y-111530000D02*
X161759000Y-110172000D01*
X161719000Y-114952000D02*
X161719000Y-113610000D01*
X161719000Y-111530000D02*
X161719000Y-110188000D01*
X161679000Y-114935000D02*
X161679000Y-113610000D01*
X161679000Y-111530000D02*
X161679000Y-110205000D01*
X161639000Y-114918000D02*
X161639000Y-113610000D01*
X161639000Y-111530000D02*
X161639000Y-110222000D01*
X161599000Y-114899000D02*
X161599000Y-113610000D01*
X161599000Y-111530000D02*
X161599000Y-110241000D01*
X161559000Y-114880000D02*
X161559000Y-113610000D01*
X161559000Y-111530000D02*
X161559000Y-110260000D01*
X161519000Y-114860000D02*
X161519000Y-113610000D01*
X161519000Y-111530000D02*
X161519000Y-110280000D01*
X161479000Y-114838000D02*
X161479000Y-113610000D01*
X161479000Y-111530000D02*
X161479000Y-110302000D01*
X161439000Y-114817000D02*
X161439000Y-113610000D01*
X161439000Y-111530000D02*
X161439000Y-110323000D01*
X161399000Y-114794000D02*
X161399000Y-113610000D01*
X161399000Y-111530000D02*
X161399000Y-110346000D01*
X161359000Y-114770000D02*
X161359000Y-113610000D01*
X161359000Y-111530000D02*
X161359000Y-110370000D01*
X161319000Y-114745000D02*
X161319000Y-113610000D01*
X161319000Y-111530000D02*
X161319000Y-110395000D01*
X161279000Y-114719000D02*
X161279000Y-113610000D01*
X161279000Y-111530000D02*
X161279000Y-110421000D01*
X161239000Y-114692000D02*
X161239000Y-113610000D01*
X161239000Y-111530000D02*
X161239000Y-110448000D01*
X161199000Y-114665000D02*
X161199000Y-113610000D01*
X161199000Y-111530000D02*
X161199000Y-110475000D01*
X161159000Y-114635000D02*
X161159000Y-113610000D01*
X161159000Y-111530000D02*
X161159000Y-110505000D01*
X161119000Y-114605000D02*
X161119000Y-113610000D01*
X161119000Y-111530000D02*
X161119000Y-110535000D01*
X161079000Y-114574000D02*
X161079000Y-113610000D01*
X161079000Y-111530000D02*
X161079000Y-110566000D01*
X161039000Y-114541000D02*
X161039000Y-113610000D01*
X161039000Y-111530000D02*
X161039000Y-110599000D01*
X160999000Y-114507000D02*
X160999000Y-113610000D01*
X160999000Y-111530000D02*
X160999000Y-110633000D01*
X160959000Y-114471000D02*
X160959000Y-113610000D01*
X160959000Y-111530000D02*
X160959000Y-110669000D01*
X160919000Y-114434000D02*
X160919000Y-113610000D01*
X160919000Y-111530000D02*
X160919000Y-110706000D01*
X160879000Y-114396000D02*
X160879000Y-113610000D01*
X160879000Y-111530000D02*
X160879000Y-110744000D01*
X160839000Y-114355000D02*
X160839000Y-113610000D01*
X160839000Y-111530000D02*
X160839000Y-110785000D01*
X160799000Y-114313000D02*
X160799000Y-113610000D01*
X160799000Y-111530000D02*
X160799000Y-110827000D01*
X160759000Y-114269000D02*
X160759000Y-113610000D01*
X160759000Y-111530000D02*
X160759000Y-110871000D01*
X160719000Y-114223000D02*
X160719000Y-113610000D01*
X160719000Y-111530000D02*
X160719000Y-110917000D01*
X160679000Y-114175000D02*
X160679000Y-113610000D01*
X160679000Y-111530000D02*
X160679000Y-110965000D01*
X160639000Y-114124000D02*
X160639000Y-113610000D01*
X160639000Y-111530000D02*
X160639000Y-111016000D01*
X160599000Y-114070000D02*
X160599000Y-113610000D01*
X160599000Y-111530000D02*
X160599000Y-111070000D01*
X160559000Y-114013000D02*
X160559000Y-113610000D01*
X160559000Y-111530000D02*
X160559000Y-111127000D01*
X160519000Y-113953000D02*
X160519000Y-113610000D01*
X160519000Y-111530000D02*
X160519000Y-111187000D01*
X160479000Y-113889000D02*
X160479000Y-113610000D01*
X160479000Y-111530000D02*
X160479000Y-111251000D01*
X160439000Y-113821000D02*
X160439000Y-113610000D01*
X160439000Y-111530000D02*
X160439000Y-111319000D01*
X160399000Y-113748000D02*
X160399000Y-111392000D01*
X160359000Y-113668000D02*
X160359000Y-111472000D01*
X160319000Y-113581000D02*
X160319000Y-111559000D01*
X160279000Y-113485000D02*
X160279000Y-111655000D01*
X160239000Y-113375000D02*
X160239000Y-111765000D01*
X160199000Y-113247000D02*
X160199000Y-111893000D01*
X160159000Y-113088000D02*
X160159000Y-112052000D01*
X160119000Y-112854000D02*
X160119000Y-112286000D01*
X165524775Y-114045000D02*
X165024775Y-114045000D01*
X165274775Y-114295000D02*
X165274775Y-113795000D01*
X155040000Y-84990000D02*
X155040000Y-82330000D01*
X147360000Y-84990000D02*
X155040000Y-84990000D01*
X147360000Y-82330000D02*
X155040000Y-82330000D01*
X147360000Y-84990000D02*
X147360000Y-82330000D01*
X146090000Y-84990000D02*
X144760000Y-84990000D01*
X144760000Y-84990000D02*
X144760000Y-83660000D01*
X166530000Y-116640000D02*
X166530000Y-117970000D01*
X165200000Y-116640000D02*
X166530000Y-116640000D01*
X163930000Y-116640000D02*
X163930000Y-119300000D01*
X163930000Y-119300000D02*
X161330000Y-119300000D01*
X163930000Y-116640000D02*
X161330000Y-116640000D01*
X161330000Y-116640000D02*
X161330000Y-119300000D01*
X158720000Y-119920000D02*
X158720000Y-117260000D01*
X145960000Y-119920000D02*
X158720000Y-119920000D01*
X145960000Y-117260000D02*
X158720000Y-117260000D01*
X145960000Y-119920000D02*
X145960000Y-117260000D01*
X144690000Y-119920000D02*
X143360000Y-119920000D01*
X143360000Y-119920000D02*
X143360000Y-118590000D01*
X168690000Y-117050000D02*
X171350000Y-117050000D01*
X168690000Y-114450000D02*
X168690000Y-117050000D01*
X171350000Y-114450000D02*
X171350000Y-117050000D01*
X168690000Y-114450000D02*
X171350000Y-114450000D01*
X168690000Y-113180000D02*
X168690000Y-111850000D01*
X168690000Y-111850000D02*
X170020000Y-111850000D01*
X175970000Y-87450000D02*
X174640000Y-87450000D01*
X175970000Y-86120000D02*
X175970000Y-87450000D01*
X175970000Y-84850000D02*
X173310000Y-84850000D01*
X173310000Y-84850000D02*
X173310000Y-82250000D01*
X175970000Y-84850000D02*
X175970000Y-82250000D01*
X175970000Y-82250000D02*
X173310000Y-82250000D01*
X175920000Y-113840000D02*
X173260000Y-113840000D01*
X175920000Y-116440000D02*
X175920000Y-113840000D01*
X173260000Y-116440000D02*
X173260000Y-113840000D01*
X175920000Y-116440000D02*
X173260000Y-116440000D01*
X175920000Y-117710000D02*
X175920000Y-119040000D01*
X175920000Y-119040000D02*
X174590000Y-119040000D01*
X152650000Y-88330000D02*
X152650000Y-89100000D01*
X152650000Y-96410000D02*
X152650000Y-95640000D01*
X151280000Y-89100000D02*
X151280000Y-95640000D01*
X154020000Y-89100000D02*
X151280000Y-89100000D01*
X154020000Y-95640000D02*
X154020000Y-89100000D01*
X151280000Y-95640000D02*
X154020000Y-95640000D01*
X145990000Y-95690000D02*
X148730000Y-95690000D01*
X148730000Y-95690000D02*
X148730000Y-89150000D01*
X148730000Y-89150000D02*
X145990000Y-89150000D01*
X145990000Y-89150000D02*
X145990000Y-95690000D01*
X147360000Y-96460000D02*
X147360000Y-95690000D01*
X147360000Y-88380000D02*
X147360000Y-89150000D01*
X158040000Y-107990000D02*
X158810000Y-107990000D01*
X166120000Y-107990000D02*
X165350000Y-107990000D01*
X158810000Y-109360000D02*
X165350000Y-109360000D01*
X158810000Y-106620000D02*
X158810000Y-109360000D01*
X165350000Y-106620000D02*
X158810000Y-106620000D01*
X165350000Y-109360000D02*
X165350000Y-106620000D01*
X165390000Y-101090000D02*
X165390000Y-98350000D01*
X165390000Y-98350000D02*
X158850000Y-98350000D01*
X158850000Y-98350000D02*
X158850000Y-101090000D01*
X158850000Y-101090000D02*
X165390000Y-101090000D01*
X166160000Y-99720000D02*
X165390000Y-99720000D01*
X158080000Y-99720000D02*
X158850000Y-99720000D01*
X154930000Y-118020000D02*
X142590000Y-118020000D01*
X154930000Y-99880000D02*
X142590000Y-99880000D01*
X154930000Y-118020000D02*
X154930000Y-99880000D01*
X142590000Y-118020000D02*
X142590000Y-99880000D01*
X142590000Y-112570000D02*
X135590000Y-112570000D01*
X142590000Y-105330000D02*
X135590000Y-105330000D01*
X142590000Y-112570000D02*
X142590000Y-105330000D01*
X135590000Y-112570000D02*
X135590000Y-105330000D01*
X135590000Y-112070000D02*
X125590000Y-112070000D01*
X135590000Y-105829000D02*
X125590000Y-105829000D01*
X135590000Y-112070000D02*
X135590000Y-105829000D01*
X125590000Y-112070000D02*
X125590000Y-105829000D01*
X179270000Y-90380000D02*
X179270000Y-110820000D01*
X174029000Y-90380000D02*
X174029000Y-92056000D01*
X174029000Y-93905000D02*
X174029000Y-94596000D01*
X174029000Y-96445000D02*
X174029000Y-97136000D01*
X174029000Y-98985000D02*
X174029000Y-99676000D01*
X174029000Y-101525000D02*
X174029000Y-102216000D01*
X174029000Y-104065000D02*
X174029000Y-104756000D01*
X174029000Y-106605000D02*
X174029000Y-107296000D01*
X174029000Y-109145000D02*
X174029000Y-110820000D01*
X179270000Y-90380000D02*
X174029000Y-90380000D01*
X179270000Y-110820000D02*
X174029000Y-110820000D01*
X177430000Y-90380000D02*
X177430000Y-110820000D01*
X179270000Y-98751000D02*
X177430000Y-98751000D01*
X179270000Y-102450000D02*
X177430000Y-102450000D01*
X174029000Y-91710000D02*
X170620000Y-91710000D01*
X174029000Y-94250000D02*
X170635000Y-94250000D01*
X174029000Y-96790000D02*
X170635000Y-96790000D01*
X174029000Y-99330000D02*
X170635000Y-99330000D01*
X174029000Y-101870000D02*
X170635000Y-101870000D01*
X174029000Y-104410000D02*
X170635000Y-104410000D01*
X174029000Y-106950000D02*
X170635000Y-106950000D01*
X174029000Y-109490000D02*
X170635000Y-109490000D01*
X162580000Y-82800000D02*
X162580000Y-84200000D01*
X161880000Y-84900000D02*
X161280000Y-84900000D01*
X160580000Y-84200000D02*
X160580000Y-82800000D01*
X161280000Y-82100000D02*
X161880000Y-82100000D01*
X161880000Y-82100000D02*
G75*
G02X162580000Y-82800000I0J-700000D01*
G01*
X160580000Y-82800000D02*
G75*
G02X161280000Y-82100000I700000J0D01*
G01*
X161280000Y-84900000D02*
G75*
G02X160580000Y-84200000I0J700000D01*
G01*
X162580000Y-84200000D02*
G75*
G02X161880000Y-84900000I-700000J0D01*
G01*
X167740000Y-81710000D02*
G75*
G03X167740000Y-81710000I-1200000J0D01*
G01*
D11*
X156806666Y-105552380D02*
X156806666Y-106266666D01*
X156759047Y-106409523D01*
X156663809Y-106504761D01*
X156520952Y-106552380D01*
X156425714Y-106552380D01*
X157282857Y-106552380D02*
X157282857Y-105552380D01*
X157663809Y-105552380D01*
X157759047Y-105600000D01*
X157806666Y-105647619D01*
X157854285Y-105742857D01*
X157854285Y-105885714D01*
X157806666Y-105980952D01*
X157759047Y-106028571D01*
X157663809Y-106076190D01*
X157282857Y-106076190D01*
X158806666Y-106552380D02*
X158235238Y-106552380D01*
X158520952Y-106552380D02*
X158520952Y-105552380D01*
X158425714Y-105695238D01*
X158330476Y-105790476D01*
X158235238Y-105838095D01*
X155890952Y-101552380D02*
X156462380Y-101552380D01*
X156176666Y-102552380D02*
X156176666Y-101552380D01*
X156795714Y-102552380D02*
X156795714Y-101552380D01*
X157033809Y-101552380D01*
X157176666Y-101600000D01*
X157271904Y-101695238D01*
X157319523Y-101790476D01*
X157367142Y-101980952D01*
X157367142Y-102123809D01*
X157319523Y-102314285D01*
X157271904Y-102409523D01*
X157176666Y-102504761D01*
X157033809Y-102552380D01*
X156795714Y-102552380D01*
X157748095Y-102266666D02*
X158224285Y-102266666D01*
X157652857Y-102552380D02*
X157986190Y-101552380D01*
X158319523Y-102552380D01*
X158557619Y-101552380D02*
X159224285Y-101552380D01*
X158795714Y-102552380D01*
X159557619Y-101647619D02*
X159605238Y-101600000D01*
X159700476Y-101552380D01*
X159938571Y-101552380D01*
X160033809Y-101600000D01*
X160081428Y-101647619D01*
X160129047Y-101742857D01*
X160129047Y-101838095D01*
X160081428Y-101980952D01*
X159510000Y-102552380D01*
X160129047Y-102552380D01*
X160986190Y-101552380D02*
X160795714Y-101552380D01*
X160700476Y-101600000D01*
X160652857Y-101647619D01*
X160557619Y-101790476D01*
X160510000Y-101980952D01*
X160510000Y-102361904D01*
X160557619Y-102457142D01*
X160605238Y-102504761D01*
X160700476Y-102552380D01*
X160890952Y-102552380D01*
X160986190Y-102504761D01*
X161033809Y-102457142D01*
X161081428Y-102361904D01*
X161081428Y-102123809D01*
X161033809Y-102028571D01*
X160986190Y-101980952D01*
X160890952Y-101933333D01*
X160700476Y-101933333D01*
X160605238Y-101980952D01*
X160557619Y-102028571D01*
X160510000Y-102123809D01*
X161938571Y-101552380D02*
X161748095Y-101552380D01*
X161652857Y-101600000D01*
X161605238Y-101647619D01*
X161510000Y-101790476D01*
X161462380Y-101980952D01*
X161462380Y-102361904D01*
X161510000Y-102457142D01*
X161557619Y-102504761D01*
X161652857Y-102552380D01*
X161843333Y-102552380D01*
X161938571Y-102504761D01*
X161986190Y-102457142D01*
X162033809Y-102361904D01*
X162033809Y-102123809D01*
X161986190Y-102028571D01*
X161938571Y-101980952D01*
X161843333Y-101933333D01*
X161652857Y-101933333D01*
X161557619Y-101980952D01*
X161510000Y-102028571D01*
X161462380Y-102123809D01*
X163963333Y-92097142D02*
X163915714Y-92144761D01*
X163772857Y-92192380D01*
X163677619Y-92192380D01*
X163534761Y-92144761D01*
X163439523Y-92049523D01*
X163391904Y-91954285D01*
X163344285Y-91763809D01*
X163344285Y-91620952D01*
X163391904Y-91430476D01*
X163439523Y-91335238D01*
X163534761Y-91240000D01*
X163677619Y-91192380D01*
X163772857Y-91192380D01*
X163915714Y-91240000D01*
X163963333Y-91287619D01*
X164915714Y-92192380D02*
X164344285Y-92192380D01*
X164630000Y-92192380D02*
X164630000Y-91192380D01*
X164534761Y-91335238D01*
X164439523Y-91430476D01*
X164344285Y-91478095D01*
X162556190Y-86762380D02*
X161984761Y-86762380D01*
X162270476Y-86762380D02*
X162270476Y-85762380D01*
X162175238Y-85905238D01*
X162080000Y-86000476D01*
X161984761Y-86048095D01*
X163175238Y-85762380D02*
X163270476Y-85762380D01*
X163365714Y-85810000D01*
X163413333Y-85857619D01*
X163460952Y-85952857D01*
X163508571Y-86143333D01*
X163508571Y-86381428D01*
X163460952Y-86571904D01*
X163413333Y-86667142D01*
X163365714Y-86714761D01*
X163270476Y-86762380D01*
X163175238Y-86762380D01*
X163080000Y-86714761D01*
X163032380Y-86667142D01*
X162984761Y-86571904D01*
X162937142Y-86381428D01*
X162937142Y-86143333D01*
X162984761Y-85952857D01*
X163032380Y-85857619D01*
X163080000Y-85810000D01*
X163175238Y-85762380D01*
X164127619Y-85762380D02*
X164222857Y-85762380D01*
X164318095Y-85810000D01*
X164365714Y-85857619D01*
X164413333Y-85952857D01*
X164460952Y-86143333D01*
X164460952Y-86381428D01*
X164413333Y-86571904D01*
X164365714Y-86667142D01*
X164318095Y-86714761D01*
X164222857Y-86762380D01*
X164127619Y-86762380D01*
X164032380Y-86714761D01*
X163984761Y-86667142D01*
X163937142Y-86571904D01*
X163889523Y-86381428D01*
X163889523Y-86143333D01*
X163937142Y-85952857D01*
X163984761Y-85857619D01*
X164032380Y-85810000D01*
X164127619Y-85762380D01*
X165080000Y-85762380D02*
X165175238Y-85762380D01*
X165270476Y-85810000D01*
X165318095Y-85857619D01*
X165365714Y-85952857D01*
X165413333Y-86143333D01*
X165413333Y-86381428D01*
X165365714Y-86571904D01*
X165318095Y-86667142D01*
X165270476Y-86714761D01*
X165175238Y-86762380D01*
X165080000Y-86762380D01*
X164984761Y-86714761D01*
X164937142Y-86667142D01*
X164889523Y-86571904D01*
X164841904Y-86381428D01*
X164841904Y-86143333D01*
X164889523Y-85952857D01*
X164937142Y-85857619D01*
X164984761Y-85810000D01*
X165080000Y-85762380D01*
X166270476Y-86095714D02*
X166270476Y-86762380D01*
X165841904Y-86095714D02*
X165841904Y-86619523D01*
X165889523Y-86714761D01*
X165984761Y-86762380D01*
X166127619Y-86762380D01*
X166222857Y-86714761D01*
X166270476Y-86667142D01*
X167080000Y-86238571D02*
X166746666Y-86238571D01*
X166746666Y-86762380D02*
X166746666Y-85762380D01*
X167222857Y-85762380D01*
X163553333Y-96697142D02*
X163505714Y-96744761D01*
X163362857Y-96792380D01*
X163267619Y-96792380D01*
X163124761Y-96744761D01*
X163029523Y-96649523D01*
X162981904Y-96554285D01*
X162934285Y-96363809D01*
X162934285Y-96220952D01*
X162981904Y-96030476D01*
X163029523Y-95935238D01*
X163124761Y-95840000D01*
X163267619Y-95792380D01*
X163362857Y-95792380D01*
X163505714Y-95840000D01*
X163553333Y-95887619D01*
X163934285Y-95887619D02*
X163981904Y-95840000D01*
X164077142Y-95792380D01*
X164315238Y-95792380D01*
X164410476Y-95840000D01*
X164458095Y-95887619D01*
X164505714Y-95982857D01*
X164505714Y-96078095D01*
X164458095Y-96220952D01*
X163886666Y-96792380D01*
X164505714Y-96792380D01*
X162037142Y-98005714D02*
X162037142Y-98672380D01*
X161799047Y-97624761D02*
X161560952Y-98339047D01*
X162180000Y-98339047D01*
X162465714Y-97672380D02*
X163132380Y-97672380D01*
X162703809Y-98672380D01*
X163703809Y-97672380D02*
X163799047Y-97672380D01*
X163894285Y-97720000D01*
X163941904Y-97767619D01*
X163989523Y-97862857D01*
X164037142Y-98053333D01*
X164037142Y-98291428D01*
X163989523Y-98481904D01*
X163941904Y-98577142D01*
X163894285Y-98624761D01*
X163799047Y-98672380D01*
X163703809Y-98672380D01*
X163608571Y-98624761D01*
X163560952Y-98577142D01*
X163513333Y-98481904D01*
X163465714Y-98291428D01*
X163465714Y-98053333D01*
X163513333Y-97862857D01*
X163560952Y-97767619D01*
X163608571Y-97720000D01*
X163703809Y-97672380D01*
X164465714Y-98005714D02*
X164465714Y-98672380D01*
X164465714Y-98100952D02*
X164513333Y-98053333D01*
X164608571Y-98005714D01*
X164751428Y-98005714D01*
X164846666Y-98053333D01*
X164894285Y-98148571D01*
X164894285Y-98672380D01*
X165703809Y-98148571D02*
X165370476Y-98148571D01*
X165370476Y-98672380D02*
X165370476Y-97672380D01*
X165846666Y-97672380D01*
X163533333Y-104737142D02*
X163485714Y-104784761D01*
X163342857Y-104832380D01*
X163247619Y-104832380D01*
X163104761Y-104784761D01*
X163009523Y-104689523D01*
X162961904Y-104594285D01*
X162914285Y-104403809D01*
X162914285Y-104260952D01*
X162961904Y-104070476D01*
X163009523Y-103975238D01*
X163104761Y-103880000D01*
X163247619Y-103832380D01*
X163342857Y-103832380D01*
X163485714Y-103880000D01*
X163533333Y-103927619D01*
X163866666Y-103832380D02*
X164485714Y-103832380D01*
X164152380Y-104213333D01*
X164295238Y-104213333D01*
X164390476Y-104260952D01*
X164438095Y-104308571D01*
X164485714Y-104403809D01*
X164485714Y-104641904D01*
X164438095Y-104737142D01*
X164390476Y-104784761D01*
X164295238Y-104832380D01*
X164009523Y-104832380D01*
X163914285Y-104784761D01*
X163866666Y-104737142D01*
X162077142Y-105805714D02*
X162077142Y-106472380D01*
X161839047Y-105424761D02*
X161600952Y-106139047D01*
X162220000Y-106139047D01*
X162505714Y-105472380D02*
X163172380Y-105472380D01*
X162743809Y-106472380D01*
X163743809Y-105472380D02*
X163839047Y-105472380D01*
X163934285Y-105520000D01*
X163981904Y-105567619D01*
X164029523Y-105662857D01*
X164077142Y-105853333D01*
X164077142Y-106091428D01*
X164029523Y-106281904D01*
X163981904Y-106377142D01*
X163934285Y-106424761D01*
X163839047Y-106472380D01*
X163743809Y-106472380D01*
X163648571Y-106424761D01*
X163600952Y-106377142D01*
X163553333Y-106281904D01*
X163505714Y-106091428D01*
X163505714Y-105853333D01*
X163553333Y-105662857D01*
X163600952Y-105567619D01*
X163648571Y-105520000D01*
X163743809Y-105472380D01*
X164505714Y-105805714D02*
X164505714Y-106472380D01*
X164505714Y-105900952D02*
X164553333Y-105853333D01*
X164648571Y-105805714D01*
X164791428Y-105805714D01*
X164886666Y-105853333D01*
X164934285Y-105948571D01*
X164934285Y-106472380D01*
X165743809Y-105948571D02*
X165410476Y-105948571D01*
X165410476Y-106472380D02*
X165410476Y-105472380D01*
X165886666Y-105472380D01*
X170147142Y-86066666D02*
X170194761Y-86114285D01*
X170242380Y-86257142D01*
X170242380Y-86352380D01*
X170194761Y-86495238D01*
X170099523Y-86590476D01*
X170004285Y-86638095D01*
X169813809Y-86685714D01*
X169670952Y-86685714D01*
X169480476Y-86638095D01*
X169385238Y-86590476D01*
X169290000Y-86495238D01*
X169242380Y-86352380D01*
X169242380Y-86257142D01*
X169290000Y-86114285D01*
X169337619Y-86066666D01*
X169575714Y-85209523D02*
X170242380Y-85209523D01*
X169194761Y-85447619D02*
X169909047Y-85685714D01*
X169909047Y-85066666D01*
X171842380Y-87527619D02*
X171842380Y-88099047D01*
X171842380Y-87813333D02*
X170842380Y-87813333D01*
X170985238Y-87908571D01*
X171080476Y-88003809D01*
X171128095Y-88099047D01*
X170842380Y-86908571D02*
X170842380Y-86813333D01*
X170890000Y-86718095D01*
X170937619Y-86670476D01*
X171032857Y-86622857D01*
X171223333Y-86575238D01*
X171461428Y-86575238D01*
X171651904Y-86622857D01*
X171747142Y-86670476D01*
X171794761Y-86718095D01*
X171842380Y-86813333D01*
X171842380Y-86908571D01*
X171794761Y-87003809D01*
X171747142Y-87051428D01*
X171651904Y-87099047D01*
X171461428Y-87146666D01*
X171223333Y-87146666D01*
X171032857Y-87099047D01*
X170937619Y-87051428D01*
X170890000Y-87003809D01*
X170842380Y-86908571D01*
X170842380Y-85956190D02*
X170842380Y-85860952D01*
X170890000Y-85765714D01*
X170937619Y-85718095D01*
X171032857Y-85670476D01*
X171223333Y-85622857D01*
X171461428Y-85622857D01*
X171651904Y-85670476D01*
X171747142Y-85718095D01*
X171794761Y-85765714D01*
X171842380Y-85860952D01*
X171842380Y-85956190D01*
X171794761Y-86051428D01*
X171747142Y-86099047D01*
X171651904Y-86146666D01*
X171461428Y-86194285D01*
X171223333Y-86194285D01*
X171032857Y-86146666D01*
X170937619Y-86099047D01*
X170890000Y-86051428D01*
X170842380Y-85956190D01*
X171175714Y-85194285D02*
X171842380Y-85194285D01*
X171270952Y-85194285D02*
X171223333Y-85146666D01*
X171175714Y-85051428D01*
X171175714Y-84908571D01*
X171223333Y-84813333D01*
X171318571Y-84765714D01*
X171842380Y-84765714D01*
X171318571Y-83956190D02*
X171318571Y-84289523D01*
X171842380Y-84289523D02*
X170842380Y-84289523D01*
X170842380Y-83813333D01*
X163503333Y-114627142D02*
X163455714Y-114674761D01*
X163312857Y-114722380D01*
X163217619Y-114722380D01*
X163074761Y-114674761D01*
X162979523Y-114579523D01*
X162931904Y-114484285D01*
X162884285Y-114293809D01*
X162884285Y-114150952D01*
X162931904Y-113960476D01*
X162979523Y-113865238D01*
X163074761Y-113770000D01*
X163217619Y-113722380D01*
X163312857Y-113722380D01*
X163455714Y-113770000D01*
X163503333Y-113817619D01*
X164408095Y-113722380D02*
X163931904Y-113722380D01*
X163884285Y-114198571D01*
X163931904Y-114150952D01*
X164027142Y-114103333D01*
X164265238Y-114103333D01*
X164360476Y-114150952D01*
X164408095Y-114198571D01*
X164455714Y-114293809D01*
X164455714Y-114531904D01*
X164408095Y-114627142D01*
X164360476Y-114674761D01*
X164265238Y-114722380D01*
X164027142Y-114722380D01*
X163931904Y-114674761D01*
X163884285Y-114627142D01*
X163453333Y-110665714D02*
X163453333Y-111332380D01*
X163215238Y-110284761D02*
X162977142Y-110999047D01*
X163596190Y-110999047D01*
X163881904Y-110332380D02*
X164548571Y-110332380D01*
X164120000Y-111332380D01*
X165358095Y-110665714D02*
X165358095Y-111332380D01*
X164929523Y-110665714D02*
X164929523Y-111189523D01*
X164977142Y-111284761D01*
X165072380Y-111332380D01*
X165215238Y-111332380D01*
X165310476Y-111284761D01*
X165358095Y-111237142D01*
X166167619Y-110808571D02*
X165834285Y-110808571D01*
X165834285Y-111332380D02*
X165834285Y-110332380D01*
X166310476Y-110332380D01*
X142752380Y-84043333D02*
X143466666Y-84043333D01*
X143609523Y-84090952D01*
X143704761Y-84186190D01*
X143752380Y-84329047D01*
X143752380Y-84424285D01*
X143752380Y-83043333D02*
X143752380Y-83614761D01*
X143752380Y-83329047D02*
X142752380Y-83329047D01*
X142895238Y-83424285D01*
X142990476Y-83519523D01*
X143038095Y-83614761D01*
X143307142Y-81472380D02*
X143307142Y-80472380D01*
X143783333Y-81472380D02*
X143783333Y-80472380D01*
X144354761Y-81472380D01*
X144354761Y-80472380D01*
X144830952Y-81472380D02*
X144830952Y-80472380D01*
X145211904Y-80472380D01*
X145307142Y-80520000D01*
X145354761Y-80567619D01*
X145402380Y-80662857D01*
X145402380Y-80805714D01*
X145354761Y-80900952D01*
X145307142Y-80948571D01*
X145211904Y-80996190D01*
X144830952Y-80996190D01*
X145830952Y-80472380D02*
X145830952Y-81281904D01*
X145878571Y-81377142D01*
X145926190Y-81424761D01*
X146021428Y-81472380D01*
X146211904Y-81472380D01*
X146307142Y-81424761D01*
X146354761Y-81377142D01*
X146402380Y-81281904D01*
X146402380Y-80472380D01*
X146735714Y-80472380D02*
X147307142Y-80472380D01*
X147021428Y-81472380D02*
X147021428Y-80472380D01*
X148878571Y-81472380D02*
X148402380Y-81472380D01*
X148402380Y-80472380D01*
X149211904Y-80948571D02*
X149545238Y-80948571D01*
X149688095Y-81472380D02*
X149211904Y-81472380D01*
X149211904Y-80472380D01*
X149688095Y-80472380D01*
X150450000Y-80948571D02*
X150116666Y-80948571D01*
X150116666Y-81472380D02*
X150116666Y-80472380D01*
X150592857Y-80472380D01*
X150830952Y-80472380D02*
X151402380Y-80472380D01*
X151116666Y-81472380D02*
X151116666Y-80472380D01*
X152450000Y-80424761D02*
X151592857Y-81710476D01*
X153354761Y-81472380D02*
X153021428Y-80996190D01*
X152783333Y-81472380D02*
X152783333Y-80472380D01*
X153164285Y-80472380D01*
X153259523Y-80520000D01*
X153307142Y-80567619D01*
X153354761Y-80662857D01*
X153354761Y-80805714D01*
X153307142Y-80900952D01*
X153259523Y-80948571D01*
X153164285Y-80996190D01*
X152783333Y-80996190D01*
X153783333Y-81472380D02*
X153783333Y-80472380D01*
X154783333Y-80520000D02*
X154688095Y-80472380D01*
X154545238Y-80472380D01*
X154402380Y-80520000D01*
X154307142Y-80615238D01*
X154259523Y-80710476D01*
X154211904Y-80900952D01*
X154211904Y-81043809D01*
X154259523Y-81234285D01*
X154307142Y-81329523D01*
X154402380Y-81424761D01*
X154545238Y-81472380D01*
X154640476Y-81472380D01*
X154783333Y-81424761D01*
X154830952Y-81377142D01*
X154830952Y-81043809D01*
X154640476Y-81043809D01*
X155259523Y-81472380D02*
X155259523Y-80472380D01*
X155259523Y-80948571D02*
X155830952Y-80948571D01*
X155830952Y-81472380D02*
X155830952Y-80472380D01*
X156164285Y-80472380D02*
X156735714Y-80472380D01*
X156450000Y-81472380D02*
X156450000Y-80472380D01*
X165576666Y-114752380D02*
X165576666Y-115466666D01*
X165529047Y-115609523D01*
X165433809Y-115704761D01*
X165290952Y-115752380D01*
X165195714Y-115752380D01*
X166005238Y-114847619D02*
X166052857Y-114800000D01*
X166148095Y-114752380D01*
X166386190Y-114752380D01*
X166481428Y-114800000D01*
X166529047Y-114847619D01*
X166576666Y-114942857D01*
X166576666Y-115038095D01*
X166529047Y-115180952D01*
X165957619Y-115752380D01*
X166576666Y-115752380D01*
X161018095Y-120472380D02*
X161637142Y-120472380D01*
X161303809Y-120853333D01*
X161446666Y-120853333D01*
X161541904Y-120900952D01*
X161589523Y-120948571D01*
X161637142Y-121043809D01*
X161637142Y-121281904D01*
X161589523Y-121377142D01*
X161541904Y-121424761D01*
X161446666Y-121472380D01*
X161160952Y-121472380D01*
X161065714Y-121424761D01*
X161018095Y-121377142D01*
X161922857Y-120472380D02*
X162256190Y-121472380D01*
X162589523Y-120472380D01*
X162922857Y-121091428D02*
X163684761Y-121091428D01*
X164684761Y-121472380D02*
X164113333Y-121472380D01*
X164399047Y-121472380D02*
X164399047Y-120472380D01*
X164303809Y-120615238D01*
X164208571Y-120710476D01*
X164113333Y-120758095D01*
X165256190Y-120900952D02*
X165160952Y-120853333D01*
X165113333Y-120805714D01*
X165065714Y-120710476D01*
X165065714Y-120662857D01*
X165113333Y-120567619D01*
X165160952Y-120520000D01*
X165256190Y-120472380D01*
X165446666Y-120472380D01*
X165541904Y-120520000D01*
X165589523Y-120567619D01*
X165637142Y-120662857D01*
X165637142Y-120710476D01*
X165589523Y-120805714D01*
X165541904Y-120853333D01*
X165446666Y-120900952D01*
X165256190Y-120900952D01*
X165160952Y-120948571D01*
X165113333Y-120996190D01*
X165065714Y-121091428D01*
X165065714Y-121281904D01*
X165113333Y-121377142D01*
X165160952Y-121424761D01*
X165256190Y-121472380D01*
X165446666Y-121472380D01*
X165541904Y-121424761D01*
X165589523Y-121377142D01*
X165637142Y-121281904D01*
X165637142Y-121091428D01*
X165589523Y-120996190D01*
X165541904Y-120948571D01*
X165446666Y-120900952D01*
X165922857Y-120472380D02*
X166256190Y-121472380D01*
X166589523Y-120472380D01*
X144306666Y-120782380D02*
X144306666Y-121496666D01*
X144259047Y-121639523D01*
X144163809Y-121734761D01*
X144020952Y-121782380D01*
X143925714Y-121782380D01*
X144687619Y-120782380D02*
X145306666Y-120782380D01*
X144973333Y-121163333D01*
X145116190Y-121163333D01*
X145211428Y-121210952D01*
X145259047Y-121258571D01*
X145306666Y-121353809D01*
X145306666Y-121591904D01*
X145259047Y-121687142D01*
X145211428Y-121734761D01*
X145116190Y-121782380D01*
X144830476Y-121782380D01*
X144735238Y-121734761D01*
X144687619Y-121687142D01*
X149710952Y-120892380D02*
X150044285Y-121892380D01*
X150377619Y-120892380D01*
X150901428Y-120892380D02*
X151091904Y-120892380D01*
X151187142Y-120940000D01*
X151282380Y-121035238D01*
X151330000Y-121225714D01*
X151330000Y-121559047D01*
X151282380Y-121749523D01*
X151187142Y-121844761D01*
X151091904Y-121892380D01*
X150901428Y-121892380D01*
X150806190Y-121844761D01*
X150710952Y-121749523D01*
X150663333Y-121559047D01*
X150663333Y-121225714D01*
X150710952Y-121035238D01*
X150806190Y-120940000D01*
X150901428Y-120892380D01*
X152234761Y-121892380D02*
X151758571Y-121892380D01*
X151758571Y-120892380D01*
X152568095Y-120892380D02*
X152568095Y-121701904D01*
X152615714Y-121797142D01*
X152663333Y-121844761D01*
X152758571Y-121892380D01*
X152949047Y-121892380D01*
X153044285Y-121844761D01*
X153091904Y-121797142D01*
X153139523Y-121701904D01*
X153139523Y-120892380D01*
X153615714Y-121892380D02*
X153615714Y-120892380D01*
X153949047Y-121606666D01*
X154282380Y-120892380D01*
X154282380Y-121892380D01*
X154758571Y-121368571D02*
X155091904Y-121368571D01*
X155234761Y-121892380D02*
X154758571Y-121892380D01*
X154758571Y-120892380D01*
X155234761Y-120892380D01*
X156377619Y-121606666D02*
X156853809Y-121606666D01*
X156282380Y-121892380D02*
X156615714Y-120892380D01*
X156949047Y-121892380D01*
X157282380Y-120892380D02*
X157282380Y-121701904D01*
X157330000Y-121797142D01*
X157377619Y-121844761D01*
X157472857Y-121892380D01*
X157663333Y-121892380D01*
X157758571Y-121844761D01*
X157806190Y-121797142D01*
X157853809Y-121701904D01*
X157853809Y-120892380D01*
X158234761Y-120892380D02*
X158901428Y-121892380D01*
X158901428Y-120892380D02*
X158234761Y-121892380D01*
X166862380Y-113523333D02*
X167576666Y-113523333D01*
X167719523Y-113570952D01*
X167814761Y-113666190D01*
X167862380Y-113809047D01*
X167862380Y-113904285D01*
X167195714Y-112618571D02*
X167862380Y-112618571D01*
X166814761Y-112856666D02*
X167529047Y-113094761D01*
X167529047Y-112475714D01*
X168621428Y-119202380D02*
X168621428Y-118202380D01*
X168859523Y-118202380D01*
X169002380Y-118250000D01*
X169097619Y-118345238D01*
X169145238Y-118440476D01*
X169192857Y-118630952D01*
X169192857Y-118773809D01*
X169145238Y-118964285D01*
X169097619Y-119059523D01*
X169002380Y-119154761D01*
X168859523Y-119202380D01*
X168621428Y-119202380D01*
X169621428Y-119202380D02*
X169621428Y-118202380D01*
X170050000Y-118916666D02*
X170526190Y-118916666D01*
X169954761Y-119202380D02*
X170288095Y-118202380D01*
X170621428Y-119202380D01*
X171478571Y-118250000D02*
X171383333Y-118202380D01*
X171240476Y-118202380D01*
X171097619Y-118250000D01*
X171002380Y-118345238D01*
X170954761Y-118440476D01*
X170907142Y-118630952D01*
X170907142Y-118773809D01*
X170954761Y-118964285D01*
X171002380Y-119059523D01*
X171097619Y-119154761D01*
X171240476Y-119202380D01*
X171335714Y-119202380D01*
X171478571Y-119154761D01*
X171526190Y-119107142D01*
X171526190Y-118773809D01*
X171335714Y-118773809D01*
X174406666Y-80362380D02*
X174406666Y-81076666D01*
X174359047Y-81219523D01*
X174263809Y-81314761D01*
X174120952Y-81362380D01*
X174025714Y-81362380D01*
X175359047Y-80362380D02*
X174882857Y-80362380D01*
X174835238Y-80838571D01*
X174882857Y-80790952D01*
X174978095Y-80743333D01*
X175216190Y-80743333D01*
X175311428Y-80790952D01*
X175359047Y-80838571D01*
X175406666Y-80933809D01*
X175406666Y-81171904D01*
X175359047Y-81267142D01*
X175311428Y-81314761D01*
X175216190Y-81362380D01*
X174978095Y-81362380D01*
X174882857Y-81314761D01*
X174835238Y-81267142D01*
X177042380Y-88007619D02*
X177042380Y-87817142D01*
X177090000Y-87721904D01*
X177185238Y-87626666D01*
X177375714Y-87579047D01*
X177709047Y-87579047D01*
X177899523Y-87626666D01*
X177994761Y-87721904D01*
X178042380Y-87817142D01*
X178042380Y-88007619D01*
X177994761Y-88102857D01*
X177899523Y-88198095D01*
X177709047Y-88245714D01*
X177375714Y-88245714D01*
X177185238Y-88198095D01*
X177090000Y-88102857D01*
X177042380Y-88007619D01*
X177042380Y-87150476D02*
X177851904Y-87150476D01*
X177947142Y-87102857D01*
X177994761Y-87055238D01*
X178042380Y-86960000D01*
X178042380Y-86769523D01*
X177994761Y-86674285D01*
X177947142Y-86626666D01*
X177851904Y-86579047D01*
X177042380Y-86579047D01*
X177042380Y-86245714D02*
X177042380Y-85674285D01*
X178042380Y-85960000D02*
X177042380Y-85960000D01*
X178042380Y-84102857D02*
X178042380Y-84579047D01*
X177042380Y-84579047D01*
X177518571Y-83769523D02*
X177518571Y-83436190D01*
X178042380Y-83293333D02*
X178042380Y-83769523D01*
X177042380Y-83769523D01*
X177042380Y-83293333D01*
X177518571Y-82531428D02*
X177518571Y-82864761D01*
X178042380Y-82864761D02*
X177042380Y-82864761D01*
X177042380Y-82388571D01*
X177042380Y-82150476D02*
X177042380Y-81579047D01*
X178042380Y-81864761D02*
X177042380Y-81864761D01*
X174306666Y-120112380D02*
X174306666Y-120826666D01*
X174259047Y-120969523D01*
X174163809Y-121064761D01*
X174020952Y-121112380D01*
X173925714Y-121112380D01*
X175211428Y-120112380D02*
X175020952Y-120112380D01*
X174925714Y-120160000D01*
X174878095Y-120207619D01*
X174782857Y-120350476D01*
X174735238Y-120540952D01*
X174735238Y-120921904D01*
X174782857Y-121017142D01*
X174830476Y-121064761D01*
X174925714Y-121112380D01*
X175116190Y-121112380D01*
X175211428Y-121064761D01*
X175259047Y-121017142D01*
X175306666Y-120921904D01*
X175306666Y-120683809D01*
X175259047Y-120588571D01*
X175211428Y-120540952D01*
X175116190Y-120493333D01*
X174925714Y-120493333D01*
X174830476Y-120540952D01*
X174782857Y-120588571D01*
X174735238Y-120683809D01*
X176782380Y-120013809D02*
X176782380Y-119823333D01*
X176830000Y-119728095D01*
X176925238Y-119632857D01*
X177115714Y-119585238D01*
X177449047Y-119585238D01*
X177639523Y-119632857D01*
X177734761Y-119728095D01*
X177782380Y-119823333D01*
X177782380Y-120013809D01*
X177734761Y-120109047D01*
X177639523Y-120204285D01*
X177449047Y-120251904D01*
X177115714Y-120251904D01*
X176925238Y-120204285D01*
X176830000Y-120109047D01*
X176782380Y-120013809D01*
X176782380Y-119156666D02*
X177591904Y-119156666D01*
X177687142Y-119109047D01*
X177734761Y-119061428D01*
X177782380Y-118966190D01*
X177782380Y-118775714D01*
X177734761Y-118680476D01*
X177687142Y-118632857D01*
X177591904Y-118585238D01*
X176782380Y-118585238D01*
X176782380Y-118251904D02*
X176782380Y-117680476D01*
X177782380Y-117966190D02*
X176782380Y-117966190D01*
X177782380Y-116013809D02*
X177306190Y-116347142D01*
X177782380Y-116585238D02*
X176782380Y-116585238D01*
X176782380Y-116204285D01*
X176830000Y-116109047D01*
X176877619Y-116061428D01*
X176972857Y-116013809D01*
X177115714Y-116013809D01*
X177210952Y-116061428D01*
X177258571Y-116109047D01*
X177306190Y-116204285D01*
X177306190Y-116585238D01*
X177782380Y-115585238D02*
X176782380Y-115585238D01*
X176830000Y-114585238D02*
X176782380Y-114680476D01*
X176782380Y-114823333D01*
X176830000Y-114966190D01*
X176925238Y-115061428D01*
X177020476Y-115109047D01*
X177210952Y-115156666D01*
X177353809Y-115156666D01*
X177544285Y-115109047D01*
X177639523Y-115061428D01*
X177734761Y-114966190D01*
X177782380Y-114823333D01*
X177782380Y-114728095D01*
X177734761Y-114585238D01*
X177687142Y-114537619D01*
X177353809Y-114537619D01*
X177353809Y-114728095D01*
X177782380Y-114109047D02*
X176782380Y-114109047D01*
X177258571Y-114109047D02*
X177258571Y-113537619D01*
X177782380Y-113537619D02*
X176782380Y-113537619D01*
X176782380Y-113204285D02*
X176782380Y-112632857D01*
X177782380Y-112918571D02*
X176782380Y-112918571D01*
X152472380Y-92576666D02*
X151996190Y-92910000D01*
X152472380Y-93148095D02*
X151472380Y-93148095D01*
X151472380Y-92767142D01*
X151520000Y-92671904D01*
X151567619Y-92624285D01*
X151662857Y-92576666D01*
X151805714Y-92576666D01*
X151900952Y-92624285D01*
X151948571Y-92671904D01*
X151996190Y-92767142D01*
X151996190Y-93148095D01*
X152472380Y-91624285D02*
X152472380Y-92195714D01*
X152472380Y-91910000D02*
X151472380Y-91910000D01*
X151615238Y-92005238D01*
X151710476Y-92100476D01*
X151758095Y-92195714D01*
X153762380Y-93060476D02*
X153762380Y-93631904D01*
X153762380Y-93346190D02*
X152762380Y-93346190D01*
X152905238Y-93441428D01*
X153000476Y-93536666D01*
X153048095Y-93631904D01*
X152762380Y-92441428D02*
X152762380Y-92346190D01*
X152810000Y-92250952D01*
X152857619Y-92203333D01*
X152952857Y-92155714D01*
X153143333Y-92108095D01*
X153381428Y-92108095D01*
X153571904Y-92155714D01*
X153667142Y-92203333D01*
X153714761Y-92250952D01*
X153762380Y-92346190D01*
X153762380Y-92441428D01*
X153714761Y-92536666D01*
X153667142Y-92584285D01*
X153571904Y-92631904D01*
X153381428Y-92679523D01*
X153143333Y-92679523D01*
X152952857Y-92631904D01*
X152857619Y-92584285D01*
X152810000Y-92536666D01*
X152762380Y-92441428D01*
X153762380Y-91679523D02*
X152762380Y-91679523D01*
X153762380Y-91108095D02*
X153190952Y-91536666D01*
X152762380Y-91108095D02*
X153333809Y-91679523D01*
X147252380Y-92696666D02*
X146776190Y-93030000D01*
X147252380Y-93268095D02*
X146252380Y-93268095D01*
X146252380Y-92887142D01*
X146300000Y-92791904D01*
X146347619Y-92744285D01*
X146442857Y-92696666D01*
X146585714Y-92696666D01*
X146680952Y-92744285D01*
X146728571Y-92791904D01*
X146776190Y-92887142D01*
X146776190Y-93268095D01*
X146347619Y-92315714D02*
X146300000Y-92268095D01*
X146252380Y-92172857D01*
X146252380Y-91934761D01*
X146300000Y-91839523D01*
X146347619Y-91791904D01*
X146442857Y-91744285D01*
X146538095Y-91744285D01*
X146680952Y-91791904D01*
X147252380Y-92363333D01*
X147252380Y-91744285D01*
X148472380Y-93120476D02*
X148472380Y-93691904D01*
X148472380Y-93406190D02*
X147472380Y-93406190D01*
X147615238Y-93501428D01*
X147710476Y-93596666D01*
X147758095Y-93691904D01*
X147472380Y-92501428D02*
X147472380Y-92406190D01*
X147520000Y-92310952D01*
X147567619Y-92263333D01*
X147662857Y-92215714D01*
X147853333Y-92168095D01*
X148091428Y-92168095D01*
X148281904Y-92215714D01*
X148377142Y-92263333D01*
X148424761Y-92310952D01*
X148472380Y-92406190D01*
X148472380Y-92501428D01*
X148424761Y-92596666D01*
X148377142Y-92644285D01*
X148281904Y-92691904D01*
X148091428Y-92739523D01*
X147853333Y-92739523D01*
X147662857Y-92691904D01*
X147567619Y-92644285D01*
X147520000Y-92596666D01*
X147472380Y-92501428D01*
X148472380Y-91739523D02*
X147472380Y-91739523D01*
X148472380Y-91168095D02*
X147900952Y-91596666D01*
X147472380Y-91168095D02*
X148043809Y-91739523D01*
X161933333Y-107942380D02*
X161600000Y-107466190D01*
X161361904Y-107942380D02*
X161361904Y-106942380D01*
X161742857Y-106942380D01*
X161838095Y-106990000D01*
X161885714Y-107037619D01*
X161933333Y-107132857D01*
X161933333Y-107275714D01*
X161885714Y-107370952D01*
X161838095Y-107418571D01*
X161742857Y-107466190D01*
X161361904Y-107466190D01*
X162266666Y-106942380D02*
X162885714Y-106942380D01*
X162552380Y-107323333D01*
X162695238Y-107323333D01*
X162790476Y-107370952D01*
X162838095Y-107418571D01*
X162885714Y-107513809D01*
X162885714Y-107751904D01*
X162838095Y-107847142D01*
X162790476Y-107894761D01*
X162695238Y-107942380D01*
X162409523Y-107942380D01*
X162314285Y-107894761D01*
X162266666Y-107847142D01*
X159338095Y-108535714D02*
X159338095Y-109202380D01*
X159100000Y-108154761D02*
X158861904Y-108869047D01*
X159480952Y-108869047D01*
X159766666Y-108202380D02*
X160433333Y-108202380D01*
X160004761Y-109202380D01*
X160814285Y-109202380D02*
X160814285Y-108202380D01*
X161385714Y-109202380D02*
X160957142Y-108630952D01*
X161385714Y-108202380D02*
X160814285Y-108773809D01*
X162528571Y-108154761D02*
X161671428Y-109440476D01*
X163385714Y-109202380D02*
X162814285Y-109202380D01*
X163100000Y-109202380D02*
X163100000Y-108202380D01*
X163004761Y-108345238D01*
X162909523Y-108440476D01*
X162814285Y-108488095D01*
X164004761Y-108202380D02*
X164100000Y-108202380D01*
X164195238Y-108250000D01*
X164242857Y-108297619D01*
X164290476Y-108392857D01*
X164338095Y-108583333D01*
X164338095Y-108821428D01*
X164290476Y-109011904D01*
X164242857Y-109107142D01*
X164195238Y-109154761D01*
X164100000Y-109202380D01*
X164004761Y-109202380D01*
X163909523Y-109154761D01*
X163861904Y-109107142D01*
X163814285Y-109011904D01*
X163766666Y-108821428D01*
X163766666Y-108583333D01*
X163814285Y-108392857D01*
X163861904Y-108297619D01*
X163909523Y-108250000D01*
X164004761Y-108202380D01*
X164766666Y-109202380D02*
X164766666Y-108202380D01*
X165338095Y-109202380D02*
X164909523Y-108630952D01*
X165338095Y-108202380D02*
X164766666Y-108773809D01*
X161763333Y-99662380D02*
X161430000Y-99186190D01*
X161191904Y-99662380D02*
X161191904Y-98662380D01*
X161572857Y-98662380D01*
X161668095Y-98710000D01*
X161715714Y-98757619D01*
X161763333Y-98852857D01*
X161763333Y-98995714D01*
X161715714Y-99090952D01*
X161668095Y-99138571D01*
X161572857Y-99186190D01*
X161191904Y-99186190D01*
X162620476Y-98995714D02*
X162620476Y-99662380D01*
X162382380Y-98614761D02*
X162144285Y-99329047D01*
X162763333Y-99329047D01*
X158997142Y-100195714D02*
X158997142Y-100862380D01*
X158759047Y-99814761D02*
X158520952Y-100529047D01*
X159140000Y-100529047D01*
X159425714Y-99862380D02*
X160092380Y-99862380D01*
X159663809Y-100862380D01*
X160473333Y-100862380D02*
X160473333Y-99862380D01*
X161044761Y-100862380D02*
X160616190Y-100290952D01*
X161044761Y-99862380D02*
X160473333Y-100433809D01*
X162187619Y-99814761D02*
X161330476Y-101100476D01*
X163044761Y-100862380D02*
X162473333Y-100862380D01*
X162759047Y-100862380D02*
X162759047Y-99862380D01*
X162663809Y-100005238D01*
X162568571Y-100100476D01*
X162473333Y-100148095D01*
X163663809Y-99862380D02*
X163759047Y-99862380D01*
X163854285Y-99910000D01*
X163901904Y-99957619D01*
X163949523Y-100052857D01*
X163997142Y-100243333D01*
X163997142Y-100481428D01*
X163949523Y-100671904D01*
X163901904Y-100767142D01*
X163854285Y-100814761D01*
X163759047Y-100862380D01*
X163663809Y-100862380D01*
X163568571Y-100814761D01*
X163520952Y-100767142D01*
X163473333Y-100671904D01*
X163425714Y-100481428D01*
X163425714Y-100243333D01*
X163473333Y-100052857D01*
X163520952Y-99957619D01*
X163568571Y-99910000D01*
X163663809Y-99862380D01*
X164854285Y-100195714D02*
X164854285Y-100862380D01*
X164425714Y-100195714D02*
X164425714Y-100719523D01*
X164473333Y-100814761D01*
X164568571Y-100862380D01*
X164711428Y-100862380D01*
X164806666Y-100814761D01*
X164854285Y-100767142D01*
X165663809Y-100338571D02*
X165330476Y-100338571D01*
X165330476Y-100862380D02*
X165330476Y-99862380D01*
X165806666Y-99862380D01*
X149612380Y-109525238D02*
X149136190Y-109858571D01*
X149612380Y-110096666D02*
X148612380Y-110096666D01*
X148612380Y-109715714D01*
X148660000Y-109620476D01*
X148707619Y-109572857D01*
X148802857Y-109525238D01*
X148945714Y-109525238D01*
X149040952Y-109572857D01*
X149088571Y-109620476D01*
X149136190Y-109715714D01*
X149136190Y-110096666D01*
X148612380Y-109239523D02*
X149612380Y-108906190D01*
X148612380Y-108572857D01*
X149612380Y-107715714D02*
X149612380Y-108287142D01*
X149612380Y-108001428D02*
X148612380Y-108001428D01*
X148755238Y-108096666D01*
X148850476Y-108191904D01*
X148898095Y-108287142D01*
X143292380Y-111869523D02*
X144292380Y-111536190D01*
X143292380Y-111202857D01*
X143292380Y-110679047D02*
X143292380Y-110488571D01*
X143340000Y-110393333D01*
X143435238Y-110298095D01*
X143625714Y-110250476D01*
X143959047Y-110250476D01*
X144149523Y-110298095D01*
X144244761Y-110393333D01*
X144292380Y-110488571D01*
X144292380Y-110679047D01*
X144244761Y-110774285D01*
X144149523Y-110869523D01*
X143959047Y-110917142D01*
X143625714Y-110917142D01*
X143435238Y-110869523D01*
X143340000Y-110774285D01*
X143292380Y-110679047D01*
X144292380Y-109345714D02*
X144292380Y-109821904D01*
X143292380Y-109821904D01*
X143292380Y-109012380D02*
X144101904Y-109012380D01*
X144197142Y-108964761D01*
X144244761Y-108917142D01*
X144292380Y-108821904D01*
X144292380Y-108631428D01*
X144244761Y-108536190D01*
X144197142Y-108488571D01*
X144101904Y-108440952D01*
X143292380Y-108440952D01*
X144292380Y-107964761D02*
X143292380Y-107964761D01*
X144006666Y-107631428D01*
X143292380Y-107298095D01*
X144292380Y-107298095D01*
X143768571Y-106821904D02*
X143768571Y-106488571D01*
X144292380Y-106345714D02*
X144292380Y-106821904D01*
X143292380Y-106821904D01*
X143292380Y-106345714D01*
X177822380Y-92641904D02*
X178631904Y-92641904D01*
X178727142Y-92594285D01*
X178774761Y-92546666D01*
X178822380Y-92451428D01*
X178822380Y-92260952D01*
X178774761Y-92165714D01*
X178727142Y-92118095D01*
X178631904Y-92070476D01*
X177822380Y-92070476D01*
X178822380Y-91070476D02*
X178822380Y-91641904D01*
X178822380Y-91356190D02*
X177822380Y-91356190D01*
X177965238Y-91451428D01*
X178060476Y-91546666D01*
X178108095Y-91641904D01*
X178774761Y-110033809D02*
X178822380Y-109890952D01*
X178822380Y-109652857D01*
X178774761Y-109557619D01*
X178727142Y-109510000D01*
X178631904Y-109462380D01*
X178536666Y-109462380D01*
X178441428Y-109510000D01*
X178393809Y-109557619D01*
X178346190Y-109652857D01*
X178298571Y-109843333D01*
X178250952Y-109938571D01*
X178203333Y-109986190D01*
X178108095Y-110033809D01*
X178012857Y-110033809D01*
X177917619Y-109986190D01*
X177870000Y-109938571D01*
X177822380Y-109843333D01*
X177822380Y-109605238D01*
X177870000Y-109462380D01*
X177822380Y-109176666D02*
X177822380Y-108605238D01*
X178822380Y-108890952D02*
X177822380Y-108890952D01*
X178536666Y-108319523D02*
X178536666Y-107843333D01*
X178822380Y-108414761D02*
X177822380Y-108081428D01*
X178822380Y-107748095D01*
X177822380Y-106938571D02*
X177822380Y-107414761D01*
X178298571Y-107462380D01*
X178250952Y-107414761D01*
X178203333Y-107319523D01*
X178203333Y-107081428D01*
X178250952Y-106986190D01*
X178298571Y-106938571D01*
X178393809Y-106890952D01*
X178631904Y-106890952D01*
X178727142Y-106938571D01*
X178774761Y-106986190D01*
X178822380Y-107081428D01*
X178822380Y-107319523D01*
X178774761Y-107414761D01*
X178727142Y-107462380D01*
X178155714Y-106033809D02*
X178822380Y-106033809D01*
X177774761Y-106271904D02*
X178489047Y-106510000D01*
X178489047Y-105890952D01*
X177822380Y-105319523D02*
X177822380Y-105224285D01*
X177870000Y-105129047D01*
X177917619Y-105081428D01*
X178012857Y-105033809D01*
X178203333Y-104986190D01*
X178441428Y-104986190D01*
X178631904Y-105033809D01*
X178727142Y-105081428D01*
X178774761Y-105129047D01*
X178822380Y-105224285D01*
X178822380Y-105319523D01*
X178774761Y-105414761D01*
X178727142Y-105462380D01*
X178631904Y-105510000D01*
X178441428Y-105557619D01*
X178203333Y-105557619D01*
X178012857Y-105510000D01*
X177917619Y-105462380D01*
X177870000Y-105414761D01*
X177822380Y-105319523D01*
X163142380Y-84363333D02*
X163856666Y-84363333D01*
X163999523Y-84410952D01*
X164094761Y-84506190D01*
X164142380Y-84649047D01*
X164142380Y-84744285D01*
X164142380Y-83887142D02*
X163142380Y-83887142D01*
X163142380Y-83506190D01*
X163190000Y-83410952D01*
X163237619Y-83363333D01*
X163332857Y-83315714D01*
X163475714Y-83315714D01*
X163570952Y-83363333D01*
X163618571Y-83410952D01*
X163666190Y-83506190D01*
X163666190Y-83887142D01*
X163237619Y-82934761D02*
X163190000Y-82887142D01*
X163142380Y-82791904D01*
X163142380Y-82553809D01*
X163190000Y-82458571D01*
X163237619Y-82410952D01*
X163332857Y-82363333D01*
X163428095Y-82363333D01*
X163570952Y-82410952D01*
X164142380Y-82982380D01*
X164142380Y-82363333D01*
X159696666Y-80998571D02*
X159363333Y-80998571D01*
X159363333Y-81522380D02*
X159363333Y-80522380D01*
X159839523Y-80522380D01*
X160791904Y-81427142D02*
X160744285Y-81474761D01*
X160601428Y-81522380D01*
X160506190Y-81522380D01*
X160363333Y-81474761D01*
X160268095Y-81379523D01*
X160220476Y-81284285D01*
X160172857Y-81093809D01*
X160172857Y-80950952D01*
X160220476Y-80760476D01*
X160268095Y-80665238D01*
X160363333Y-80570000D01*
X160506190Y-80522380D01*
X160601428Y-80522380D01*
X160744285Y-80570000D01*
X160791904Y-80617619D01*
X161649047Y-80855714D02*
X161649047Y-81522380D01*
X161220476Y-80855714D02*
X161220476Y-81379523D01*
X161268095Y-81474761D01*
X161363333Y-81522380D01*
X161506190Y-81522380D01*
X161601428Y-81474761D01*
X161649047Y-81427142D01*
X162649047Y-80570000D02*
X162553809Y-80522380D01*
X162410952Y-80522380D01*
X162268095Y-80570000D01*
X162172857Y-80665238D01*
X162125238Y-80760476D01*
X162077619Y-80950952D01*
X162077619Y-81093809D01*
X162125238Y-81284285D01*
X162172857Y-81379523D01*
X162268095Y-81474761D01*
X162410952Y-81522380D01*
X162506190Y-81522380D01*
X162649047Y-81474761D01*
X162696666Y-81427142D01*
X162696666Y-81093809D01*
X162506190Y-81093809D01*
X163125238Y-81522380D02*
X163125238Y-80522380D01*
X163696666Y-81522380D01*
X163696666Y-80522380D01*
X164172857Y-81522380D02*
X164172857Y-80522380D01*
X164410952Y-80522380D01*
X164553809Y-80570000D01*
X164649047Y-80665238D01*
X164696666Y-80760476D01*
X164744285Y-80950952D01*
X164744285Y-81093809D01*
X164696666Y-81284285D01*
X164649047Y-81379523D01*
X164553809Y-81474761D01*
X164410952Y-81522380D01*
X164172857Y-81522380D01*
X168518095Y-81472380D02*
X168518095Y-80472380D01*
X168518095Y-80948571D02*
X169089523Y-80948571D01*
X169089523Y-81472380D02*
X169089523Y-80472380D01*
X170089523Y-81472380D02*
X169518095Y-81472380D01*
X169803809Y-81472380D02*
X169803809Y-80472380D01*
X169708571Y-80615238D01*
X169613333Y-80710476D01*
X169518095Y-80758095D01*
M02*
