M48
; DRILL file {KiCad 5.1.4+dfsg1-1~bpo10+1} date Fri 25 Dec 2020 12:52:29 AM GMT
; FORMAT={-:-/ absolute / metric / decimal}
; #@! TF.CreationDate,2020-12-25T00:52:29+00:00
; #@! TF.GenerationSoftware,Kicad,Pcbnew,5.1.4+dfsg1-1~bpo10+1
; #@! TF.FileFunction,Plated,1,2,PTH
FMAT,2
METRIC
T1C0.800
T2C1.000
T3C1.200
T4C1.300
%
G90
G05
T1
X152.65Y-87.29
X152.65Y-97.45
X161.47Y-112.57
X163.97Y-112.57
X147.36Y-87.34
X147.36Y-97.5
X157.0Y-107.99
X167.16Y-107.99
X169.81Y-83.35
X169.81Y-88.35
X161.28Y-96.65
X166.28Y-96.65
X161.28Y-104.46
X166.28Y-104.46
X157.04Y-99.72
X167.2Y-99.72
T2
X170.02Y-113.18
X170.02Y-115.72
X174.64Y-83.58
X174.64Y-86.12
X146.09Y-83.66
X148.63Y-83.66
X151.17Y-83.66
X153.71Y-83.66
X162.66Y-117.97
X165.2Y-117.97
X174.59Y-115.17
X174.59Y-117.71
X144.69Y-118.59
X147.23Y-118.59
X149.77Y-118.59
X152.31Y-118.59
X154.85Y-118.59
X157.39Y-118.59
X169.57Y-91.71
X169.57Y-94.25
X169.57Y-96.79
X169.57Y-99.33
X169.57Y-101.87
X169.57Y-104.41
X169.57Y-106.95
X169.57Y-109.49
X174.65Y-92.98
X174.65Y-95.52
X174.65Y-98.06
X174.65Y-100.6
X174.65Y-103.14
X174.65Y-105.68
X174.65Y-108.22
T3
X159.13Y-88.34
X164.13Y-88.34
T4
X146.51Y-103.95
X146.51Y-108.95
X146.51Y-113.95
X151.51Y-103.95
X151.51Y-108.95
X151.51Y-113.95
T0
M30
