G04 #@! TF.GenerationSoftware,KiCad,Pcbnew,5.1.4+dfsg1-1~bpo10+1*
G04 #@! TF.CreationDate,2020-12-25T00:52:37+00:00*
G04 #@! TF.ProjectId,Multi Watt Amplifier,4d756c74-6920-4576-9174-7420416d706c,rev?*
G04 #@! TF.SameCoordinates,Original*
G04 #@! TF.FileFunction,Copper,L2,Bot*
G04 #@! TF.FilePolarity,Positive*
%FSLAX46Y46*%
G04 Gerber Fmt 4.6, Leading zero omitted, Abs format (unit mm)*
G04 Created by KiCad (PCBNEW 5.1.4+dfsg1-1~bpo10+1) date 2020-12-25 00:52:37*
%MOMM*%
%LPD*%
G04 APERTURE LIST*
%ADD10C,0.187500*%
%ADD11C,0.100000*%
%ADD12R,2.400000X2.400000*%
%ADD13C,2.400000*%
%ADD14C,1.600000*%
%ADD15R,1.600000X1.600000*%
%ADD16R,1.700000X1.700000*%
%ADD17O,1.700000X1.700000*%
%ADD18O,1.600000X1.600000*%
%ADD19C,2.340000*%
%ADD20R,1.800000X1.800000*%
%ADD21O,1.800000X1.800000*%
%ADD22C,0.500000*%
%ADD23C,2.000000*%
%ADD24C,2.000000*%
%ADD25C,1.000000*%
%ADD26C,0.254000*%
G04 APERTURE END LIST*
D10*
X143531071Y-87236428D02*
X143566785Y-87343571D01*
X143566785Y-87522142D01*
X143531071Y-87593571D01*
X143495357Y-87629285D01*
X143423928Y-87665000D01*
X143352500Y-87665000D01*
X143281071Y-87629285D01*
X143245357Y-87593571D01*
X143209642Y-87522142D01*
X143173928Y-87379285D01*
X143138214Y-87307857D01*
X143102500Y-87272142D01*
X143031071Y-87236428D01*
X142959642Y-87236428D01*
X142888214Y-87272142D01*
X142852500Y-87307857D01*
X142816785Y-87379285D01*
X142816785Y-87557857D01*
X142852500Y-87665000D01*
X142816785Y-87879285D02*
X142816785Y-88307857D01*
X143566785Y-88093571D02*
X142816785Y-88093571D01*
X143352500Y-88522142D02*
X143352500Y-88879285D01*
X143566785Y-88450714D02*
X142816785Y-88700714D01*
X143566785Y-88950714D01*
X142816785Y-89557857D02*
X142816785Y-89200714D01*
X143173928Y-89165000D01*
X143138214Y-89200714D01*
X143102500Y-89272142D01*
X143102500Y-89450714D01*
X143138214Y-89522142D01*
X143173928Y-89557857D01*
X143245357Y-89593571D01*
X143423928Y-89593571D01*
X143495357Y-89557857D01*
X143531071Y-89522142D01*
X143566785Y-89450714D01*
X143566785Y-89272142D01*
X143531071Y-89200714D01*
X143495357Y-89165000D01*
X143066785Y-90236428D02*
X143566785Y-90236428D01*
X142781071Y-90057857D02*
X143316785Y-89879285D01*
X143316785Y-90343571D01*
X142816785Y-90772142D02*
X142816785Y-90843571D01*
X142852500Y-90915000D01*
X142888214Y-90950714D01*
X142959642Y-90986428D01*
X143102500Y-91022142D01*
X143281071Y-91022142D01*
X143423928Y-90986428D01*
X143495357Y-90950714D01*
X143531071Y-90915000D01*
X143566785Y-90843571D01*
X143566785Y-90772142D01*
X143531071Y-90700714D01*
X143495357Y-90665000D01*
X143423928Y-90629285D01*
X143281071Y-90593571D01*
X143102500Y-90593571D01*
X142959642Y-90629285D01*
X142888214Y-90665000D01*
X142852500Y-90700714D01*
X142816785Y-90772142D01*
X142781071Y-91879285D02*
X143745357Y-91236428D01*
X142816785Y-92022142D02*
X142816785Y-92450714D01*
X143566785Y-92236428D02*
X142816785Y-92236428D01*
X143566785Y-92700714D02*
X142816785Y-92700714D01*
X142816785Y-92879285D01*
X142852500Y-92986428D01*
X142923928Y-93057857D01*
X142995357Y-93093571D01*
X143138214Y-93129285D01*
X143245357Y-93129285D01*
X143388214Y-93093571D01*
X143459642Y-93057857D01*
X143531071Y-92986428D01*
X143566785Y-92879285D01*
X143566785Y-92700714D01*
X143352500Y-93415000D02*
X143352500Y-93772142D01*
X143566785Y-93343571D02*
X142816785Y-93593571D01*
X143566785Y-93843571D01*
X142816785Y-94022142D02*
X142816785Y-94522142D01*
X143566785Y-94200714D01*
X142888214Y-94772142D02*
X142852500Y-94807857D01*
X142816785Y-94879285D01*
X142816785Y-95057857D01*
X142852500Y-95129285D01*
X142888214Y-95165000D01*
X142959642Y-95200714D01*
X143031071Y-95200714D01*
X143138214Y-95165000D01*
X143566785Y-94736428D01*
X143566785Y-95200714D01*
X142816785Y-95843571D02*
X142816785Y-95700714D01*
X142852500Y-95629285D01*
X142888214Y-95593571D01*
X142995357Y-95522142D01*
X143138214Y-95486428D01*
X143423928Y-95486428D01*
X143495357Y-95522142D01*
X143531071Y-95557857D01*
X143566785Y-95629285D01*
X143566785Y-95772142D01*
X143531071Y-95843571D01*
X143495357Y-95879285D01*
X143423928Y-95915000D01*
X143245357Y-95915000D01*
X143173928Y-95879285D01*
X143138214Y-95843571D01*
X143102500Y-95772142D01*
X143102500Y-95629285D01*
X143138214Y-95557857D01*
X143173928Y-95522142D01*
X143245357Y-95486428D01*
X142816785Y-96557857D02*
X142816785Y-96415000D01*
X142852500Y-96343571D01*
X142888214Y-96307857D01*
X142995357Y-96236428D01*
X143138214Y-96200714D01*
X143423928Y-96200714D01*
X143495357Y-96236428D01*
X143531071Y-96272142D01*
X143566785Y-96343571D01*
X143566785Y-96486428D01*
X143531071Y-96557857D01*
X143495357Y-96593571D01*
X143423928Y-96629285D01*
X143245357Y-96629285D01*
X143173928Y-96593571D01*
X143138214Y-96557857D01*
X143102500Y-96486428D01*
X143102500Y-96343571D01*
X143138214Y-96272142D01*
X143173928Y-96236428D01*
X143245357Y-96200714D01*
X143352500Y-97486428D02*
X143352500Y-97843571D01*
X143566785Y-97415000D02*
X142816785Y-97665000D01*
X143566785Y-97915000D01*
X143566785Y-98165000D02*
X142816785Y-98165000D01*
X143352500Y-98415000D01*
X142816785Y-98665000D01*
X143566785Y-98665000D01*
X143566785Y-99022142D02*
X142816785Y-99022142D01*
X142816785Y-99307857D01*
X142852500Y-99379285D01*
X142888214Y-99415000D01*
X142959642Y-99450714D01*
X143066785Y-99450714D01*
X143138214Y-99415000D01*
X143173928Y-99379285D01*
X143209642Y-99307857D01*
X143209642Y-99022142D01*
X143566785Y-100129285D02*
X143566785Y-99772142D01*
X142816785Y-99772142D01*
X143566785Y-100379285D02*
X142816785Y-100379285D01*
X143173928Y-100986428D02*
X143173928Y-100736428D01*
X143566785Y-100736428D02*
X142816785Y-100736428D01*
X142816785Y-101093571D01*
X143566785Y-101379285D02*
X142816785Y-101379285D01*
X143173928Y-101736428D02*
X143173928Y-101986428D01*
X143566785Y-102093571D02*
X143566785Y-101736428D01*
X142816785Y-101736428D01*
X142816785Y-102093571D01*
X143566785Y-102843571D02*
X143209642Y-102593571D01*
X143566785Y-102415000D02*
X142816785Y-102415000D01*
X142816785Y-102700714D01*
X142852500Y-102772142D01*
X142888214Y-102807857D01*
X142959642Y-102843571D01*
X143066785Y-102843571D01*
X143138214Y-102807857D01*
X143173928Y-102772142D01*
X143209642Y-102700714D01*
X143209642Y-102415000D01*
X145165000Y-88450714D02*
X145129285Y-88415000D01*
X145022142Y-88343571D01*
X144950714Y-88307857D01*
X144843571Y-88272142D01*
X144665000Y-88236428D01*
X144522142Y-88236428D01*
X144343571Y-88272142D01*
X144236428Y-88307857D01*
X144165000Y-88343571D01*
X144057857Y-88415000D01*
X144022142Y-88450714D01*
X144807857Y-89165000D02*
X144843571Y-89129285D01*
X144879285Y-89022142D01*
X144879285Y-88950714D01*
X144843571Y-88843571D01*
X144772142Y-88772142D01*
X144700714Y-88736428D01*
X144557857Y-88700714D01*
X144450714Y-88700714D01*
X144307857Y-88736428D01*
X144236428Y-88772142D01*
X144165000Y-88843571D01*
X144129285Y-88950714D01*
X144129285Y-89022142D01*
X144165000Y-89129285D01*
X144200714Y-89165000D01*
X145165000Y-89415000D02*
X145129285Y-89450714D01*
X145022142Y-89522142D01*
X144950714Y-89557857D01*
X144843571Y-89593571D01*
X144665000Y-89629285D01*
X144522142Y-89629285D01*
X144343571Y-89593571D01*
X144236428Y-89557857D01*
X144165000Y-89522142D01*
X144057857Y-89450714D01*
X144022142Y-89415000D01*
X144200714Y-90522142D02*
X144165000Y-90557857D01*
X144129285Y-90629285D01*
X144129285Y-90807857D01*
X144165000Y-90879285D01*
X144200714Y-90915000D01*
X144272142Y-90950714D01*
X144343571Y-90950714D01*
X144450714Y-90915000D01*
X144879285Y-90486428D01*
X144879285Y-90950714D01*
X144129285Y-91415000D02*
X144129285Y-91486428D01*
X144165000Y-91557857D01*
X144200714Y-91593571D01*
X144272142Y-91629285D01*
X144415000Y-91665000D01*
X144593571Y-91665000D01*
X144736428Y-91629285D01*
X144807857Y-91593571D01*
X144843571Y-91557857D01*
X144879285Y-91486428D01*
X144879285Y-91415000D01*
X144843571Y-91343571D01*
X144807857Y-91307857D01*
X144736428Y-91272142D01*
X144593571Y-91236428D01*
X144415000Y-91236428D01*
X144272142Y-91272142D01*
X144200714Y-91307857D01*
X144165000Y-91343571D01*
X144129285Y-91415000D01*
X144200714Y-91950714D02*
X144165000Y-91986428D01*
X144129285Y-92057857D01*
X144129285Y-92236428D01*
X144165000Y-92307857D01*
X144200714Y-92343571D01*
X144272142Y-92379285D01*
X144343571Y-92379285D01*
X144450714Y-92343571D01*
X144879285Y-91915000D01*
X144879285Y-92379285D01*
X144879285Y-93093571D02*
X144879285Y-92665000D01*
X144879285Y-92879285D02*
X144129285Y-92879285D01*
X144236428Y-92807857D01*
X144307857Y-92736428D01*
X144343571Y-92665000D01*
X144593571Y-93415000D02*
X144593571Y-93986428D01*
X144129285Y-94486428D02*
X144129285Y-94557857D01*
X144165000Y-94629285D01*
X144200714Y-94665000D01*
X144272142Y-94700714D01*
X144415000Y-94736428D01*
X144593571Y-94736428D01*
X144736428Y-94700714D01*
X144807857Y-94665000D01*
X144843571Y-94629285D01*
X144879285Y-94557857D01*
X144879285Y-94486428D01*
X144843571Y-94415000D01*
X144807857Y-94379285D01*
X144736428Y-94343571D01*
X144593571Y-94307857D01*
X144415000Y-94307857D01*
X144272142Y-94343571D01*
X144200714Y-94379285D01*
X144165000Y-94415000D01*
X144129285Y-94486428D01*
X144879285Y-95450714D02*
X144879285Y-95022142D01*
X144879285Y-95236428D02*
X144129285Y-95236428D01*
X144236428Y-95165000D01*
X144307857Y-95093571D01*
X144343571Y-95022142D01*
X144593571Y-95772142D02*
X144593571Y-96343571D01*
X144879285Y-97093571D02*
X144879285Y-96665000D01*
X144879285Y-96879285D02*
X144129285Y-96879285D01*
X144236428Y-96807857D01*
X144307857Y-96736428D01*
X144343571Y-96665000D01*
X144879285Y-97807857D02*
X144879285Y-97379285D01*
X144879285Y-97593571D02*
X144129285Y-97593571D01*
X144236428Y-97522142D01*
X144307857Y-97450714D01*
X144343571Y-97379285D01*
X144129285Y-98593571D02*
X144879285Y-98843571D01*
X144129285Y-99093571D01*
X144879285Y-99736428D02*
X144879285Y-99307857D01*
X144879285Y-99522142D02*
X144129285Y-99522142D01*
X144236428Y-99450714D01*
X144307857Y-99379285D01*
X144343571Y-99307857D01*
X144807857Y-100057857D02*
X144843571Y-100093571D01*
X144879285Y-100057857D01*
X144843571Y-100022142D01*
X144807857Y-100057857D01*
X144879285Y-100057857D01*
X144129285Y-100557857D02*
X144129285Y-100629285D01*
X144165000Y-100700714D01*
X144200714Y-100736428D01*
X144272142Y-100772142D01*
X144415000Y-100807857D01*
X144593571Y-100807857D01*
X144736428Y-100772142D01*
X144807857Y-100736428D01*
X144843571Y-100700714D01*
X144879285Y-100629285D01*
X144879285Y-100557857D01*
X144843571Y-100486428D01*
X144807857Y-100450714D01*
X144736428Y-100415000D01*
X144593571Y-100379285D01*
X144415000Y-100379285D01*
X144272142Y-100415000D01*
X144200714Y-100450714D01*
X144165000Y-100486428D01*
X144129285Y-100557857D01*
X144807857Y-101129285D02*
X144843571Y-101165000D01*
X144879285Y-101129285D01*
X144843571Y-101093571D01*
X144807857Y-101129285D01*
X144879285Y-101129285D01*
X144129285Y-101629285D02*
X144129285Y-101700714D01*
X144165000Y-101772142D01*
X144200714Y-101807857D01*
X144272142Y-101843571D01*
X144415000Y-101879285D01*
X144593571Y-101879285D01*
X144736428Y-101843571D01*
X144807857Y-101807857D01*
X144843571Y-101772142D01*
X144879285Y-101700714D01*
X144879285Y-101629285D01*
X144843571Y-101557857D01*
X144807857Y-101522142D01*
X144736428Y-101486428D01*
X144593571Y-101450714D01*
X144415000Y-101450714D01*
X144272142Y-101486428D01*
X144200714Y-101522142D01*
X144165000Y-101557857D01*
X144129285Y-101629285D01*
X145441785Y-87611428D02*
X146191785Y-87790000D01*
X145656071Y-87932857D01*
X146191785Y-88075714D01*
X145441785Y-88254285D01*
X145441785Y-88468571D02*
X146191785Y-88647142D01*
X145656071Y-88790000D01*
X146191785Y-88932857D01*
X145441785Y-89111428D01*
X145441785Y-89325714D02*
X146191785Y-89504285D01*
X145656071Y-89647142D01*
X146191785Y-89790000D01*
X145441785Y-89968571D01*
X146120357Y-90254285D02*
X146156071Y-90290000D01*
X146191785Y-90254285D01*
X146156071Y-90218571D01*
X146120357Y-90254285D01*
X146191785Y-90254285D01*
X146156071Y-90575714D02*
X146191785Y-90682857D01*
X146191785Y-90861428D01*
X146156071Y-90932857D01*
X146120357Y-90968571D01*
X146048928Y-91004285D01*
X145977500Y-91004285D01*
X145906071Y-90968571D01*
X145870357Y-90932857D01*
X145834642Y-90861428D01*
X145798928Y-90718571D01*
X145763214Y-90647142D01*
X145727500Y-90611428D01*
X145656071Y-90575714D01*
X145584642Y-90575714D01*
X145513214Y-90611428D01*
X145477500Y-90647142D01*
X145441785Y-90718571D01*
X145441785Y-90897142D01*
X145477500Y-91004285D01*
X145834642Y-91468571D02*
X146191785Y-91468571D01*
X145441785Y-91218571D02*
X145834642Y-91468571D01*
X145441785Y-91718571D01*
X146156071Y-91932857D02*
X146191785Y-92040000D01*
X146191785Y-92218571D01*
X146156071Y-92290000D01*
X146120357Y-92325714D01*
X146048928Y-92361428D01*
X145977500Y-92361428D01*
X145906071Y-92325714D01*
X145870357Y-92290000D01*
X145834642Y-92218571D01*
X145798928Y-92075714D01*
X145763214Y-92004285D01*
X145727500Y-91968571D01*
X145656071Y-91932857D01*
X145584642Y-91932857D01*
X145513214Y-91968571D01*
X145477500Y-92004285D01*
X145441785Y-92075714D01*
X145441785Y-92254285D01*
X145477500Y-92361428D01*
X145441785Y-92575714D02*
X145441785Y-93004285D01*
X146191785Y-92790000D02*
X145441785Y-92790000D01*
X145798928Y-93254285D02*
X145798928Y-93504285D01*
X146191785Y-93611428D02*
X146191785Y-93254285D01*
X145441785Y-93254285D01*
X145441785Y-93611428D01*
X146191785Y-93932857D02*
X145441785Y-93932857D01*
X145977500Y-94182857D01*
X145441785Y-94432857D01*
X146191785Y-94432857D01*
X145441785Y-94790000D02*
X146048928Y-94790000D01*
X146120357Y-94825714D01*
X146156071Y-94861428D01*
X146191785Y-94932857D01*
X146191785Y-95075714D01*
X146156071Y-95147142D01*
X146120357Y-95182857D01*
X146048928Y-95218571D01*
X145441785Y-95218571D01*
X146191785Y-95575714D02*
X145441785Y-95575714D01*
X146191785Y-96004285D01*
X145441785Y-96004285D01*
X146191785Y-96361428D02*
X145441785Y-96361428D01*
X146263214Y-97218571D02*
X146227500Y-97147142D01*
X146156071Y-97075714D01*
X146048928Y-96968571D01*
X146013214Y-96897142D01*
X146013214Y-96825714D01*
X146191785Y-96861428D02*
X146156071Y-96790000D01*
X146084642Y-96718571D01*
X145941785Y-96682857D01*
X145691785Y-96682857D01*
X145548928Y-96718571D01*
X145477500Y-96790000D01*
X145441785Y-96861428D01*
X145441785Y-97004285D01*
X145477500Y-97075714D01*
X145548928Y-97147142D01*
X145691785Y-97182857D01*
X145941785Y-97182857D01*
X146084642Y-97147142D01*
X146156071Y-97075714D01*
X146191785Y-97004285D01*
X146191785Y-96861428D01*
X145441785Y-97504285D02*
X146048928Y-97504285D01*
X146120357Y-97540000D01*
X146156071Y-97575714D01*
X146191785Y-97647142D01*
X146191785Y-97790000D01*
X146156071Y-97861428D01*
X146120357Y-97897142D01*
X146048928Y-97932857D01*
X145441785Y-97932857D01*
X145798928Y-98290000D02*
X145798928Y-98540000D01*
X146191785Y-98647142D02*
X146191785Y-98290000D01*
X145441785Y-98290000D01*
X145441785Y-98647142D01*
X146120357Y-98968571D02*
X146156071Y-99004285D01*
X146191785Y-98968571D01*
X146156071Y-98932857D01*
X146120357Y-98968571D01*
X146191785Y-98968571D01*
X146120357Y-99754285D02*
X146156071Y-99718571D01*
X146191785Y-99611428D01*
X146191785Y-99540000D01*
X146156071Y-99432857D01*
X146084642Y-99361428D01*
X146013214Y-99325714D01*
X145870357Y-99290000D01*
X145763214Y-99290000D01*
X145620357Y-99325714D01*
X145548928Y-99361428D01*
X145477500Y-99432857D01*
X145441785Y-99540000D01*
X145441785Y-99611428D01*
X145477500Y-99718571D01*
X145513214Y-99754285D01*
X145441785Y-100218571D02*
X145441785Y-100361428D01*
X145477500Y-100432857D01*
X145548928Y-100504285D01*
X145691785Y-100540000D01*
X145941785Y-100540000D01*
X146084642Y-100504285D01*
X146156071Y-100432857D01*
X146191785Y-100361428D01*
X146191785Y-100218571D01*
X146156071Y-100147142D01*
X146084642Y-100075714D01*
X145941785Y-100040000D01*
X145691785Y-100040000D01*
X145548928Y-100075714D01*
X145477500Y-100147142D01*
X145441785Y-100218571D01*
X146120357Y-100861428D02*
X146156071Y-100897142D01*
X146191785Y-100861428D01*
X146156071Y-100825714D01*
X146120357Y-100861428D01*
X146191785Y-100861428D01*
X145441785Y-101218571D02*
X146048928Y-101218571D01*
X146120357Y-101254285D01*
X146156071Y-101290000D01*
X146191785Y-101361428D01*
X146191785Y-101504285D01*
X146156071Y-101575714D01*
X146120357Y-101611428D01*
X146048928Y-101647142D01*
X145441785Y-101647142D01*
X146191785Y-102004285D02*
X145441785Y-102004285D01*
X146191785Y-102432857D02*
X145763214Y-102111428D01*
X145441785Y-102432857D02*
X145870357Y-102004285D01*
D11*
G36*
X161330000Y-83750000D02*
G01*
X161330000Y-83250000D01*
X161930000Y-83250000D01*
X161930000Y-83750000D01*
X161330000Y-83750000D01*
G37*
D12*
X164130000Y-88340000D03*
D13*
X159130000Y-88340000D03*
D14*
X166280000Y-96650000D03*
X161280000Y-96650000D03*
X161280000Y-104460000D03*
X166280000Y-104460000D03*
X169810000Y-83350000D03*
X169810000Y-88350000D03*
D15*
X163970000Y-112570000D03*
D14*
X161470000Y-112570000D03*
D16*
X146090000Y-83660000D03*
D17*
X148630000Y-83660000D03*
X151170000Y-83660000D03*
X153710000Y-83660000D03*
X162660000Y-117970000D03*
D16*
X165200000Y-117970000D03*
X144690000Y-118590000D03*
D17*
X147230000Y-118590000D03*
X149770000Y-118590000D03*
X152310000Y-118590000D03*
X154850000Y-118590000D03*
X157390000Y-118590000D03*
D16*
X170020000Y-113180000D03*
D17*
X170020000Y-115720000D03*
X174640000Y-83580000D03*
D16*
X174640000Y-86120000D03*
X174590000Y-117710000D03*
D17*
X174590000Y-115170000D03*
D18*
X152650000Y-87290000D03*
D14*
X152650000Y-97450000D03*
X147360000Y-97500000D03*
D18*
X147360000Y-87340000D03*
X157000000Y-107990000D03*
D14*
X167160000Y-107990000D03*
X167200000Y-99720000D03*
D18*
X157040000Y-99720000D03*
D19*
X146510000Y-113950000D03*
X146510000Y-108950000D03*
X146510000Y-103950000D03*
X151510000Y-113950000D03*
X151510000Y-108950000D03*
X151510000Y-103950000D03*
D20*
X169570000Y-91710000D03*
D21*
X174650000Y-92980000D03*
X169570000Y-94250000D03*
X174650000Y-95520000D03*
X169570000Y-96790000D03*
X174650000Y-98060000D03*
X169570000Y-99330000D03*
X174650000Y-100600000D03*
X169570000Y-101870000D03*
X174650000Y-103140000D03*
X169570000Y-104410000D03*
X174650000Y-105680000D03*
X169570000Y-106950000D03*
X174650000Y-108220000D03*
X169570000Y-109490000D03*
D22*
X161630000Y-84150000D03*
D11*
G36*
X162379398Y-84150000D02*
G01*
X162379398Y-84174534D01*
X162374588Y-84223365D01*
X162365016Y-84271490D01*
X162350772Y-84318445D01*
X162331995Y-84363778D01*
X162308864Y-84407051D01*
X162281604Y-84447850D01*
X162250476Y-84485779D01*
X162215779Y-84520476D01*
X162177850Y-84551604D01*
X162137051Y-84578864D01*
X162093778Y-84601995D01*
X162048445Y-84620772D01*
X162001490Y-84635016D01*
X161953365Y-84644588D01*
X161904534Y-84649398D01*
X161880000Y-84649398D01*
X161880000Y-84650000D01*
X161380000Y-84650000D01*
X161380000Y-84649398D01*
X161355466Y-84649398D01*
X161306635Y-84644588D01*
X161258510Y-84635016D01*
X161211555Y-84620772D01*
X161166222Y-84601995D01*
X161122949Y-84578864D01*
X161082150Y-84551604D01*
X161044221Y-84520476D01*
X161009524Y-84485779D01*
X160978396Y-84447850D01*
X160951136Y-84407051D01*
X160928005Y-84363778D01*
X160909228Y-84318445D01*
X160894984Y-84271490D01*
X160885412Y-84223365D01*
X160880602Y-84174534D01*
X160880602Y-84150000D01*
X160880000Y-84150000D01*
X160880000Y-83650000D01*
X162380000Y-83650000D01*
X162380000Y-84150000D01*
X162379398Y-84150000D01*
X162379398Y-84150000D01*
G37*
D22*
X161630000Y-82850000D03*
D11*
G36*
X160880000Y-83350000D02*
G01*
X160880000Y-82850000D01*
X160880602Y-82850000D01*
X160880602Y-82825466D01*
X160885412Y-82776635D01*
X160894984Y-82728510D01*
X160909228Y-82681555D01*
X160928005Y-82636222D01*
X160951136Y-82592949D01*
X160978396Y-82552150D01*
X161009524Y-82514221D01*
X161044221Y-82479524D01*
X161082150Y-82448396D01*
X161122949Y-82421136D01*
X161166222Y-82398005D01*
X161211555Y-82379228D01*
X161258510Y-82364984D01*
X161306635Y-82355412D01*
X161355466Y-82350602D01*
X161380000Y-82350602D01*
X161380000Y-82350000D01*
X161880000Y-82350000D01*
X161880000Y-82350602D01*
X161904534Y-82350602D01*
X161953365Y-82355412D01*
X162001490Y-82364984D01*
X162048445Y-82379228D01*
X162093778Y-82398005D01*
X162137051Y-82421136D01*
X162177850Y-82448396D01*
X162215779Y-82479524D01*
X162250476Y-82514221D01*
X162281604Y-82552150D01*
X162308864Y-82592949D01*
X162331995Y-82636222D01*
X162350772Y-82681555D01*
X162365016Y-82728510D01*
X162374588Y-82776635D01*
X162379398Y-82825466D01*
X162379398Y-82850000D01*
X162380000Y-82850000D01*
X162380000Y-83350000D01*
X160880000Y-83350000D01*
X160880000Y-83350000D01*
G37*
D23*
X166560000Y-81700000D03*
D24*
X169570000Y-101870000D02*
X174650000Y-100600000D01*
X148630000Y-83660000D02*
X151170000Y-83660000D01*
X151510000Y-103950000D02*
X146510000Y-103950000D01*
X144690000Y-118590000D02*
X144650000Y-118514002D01*
X144139999Y-118039999D02*
X144690000Y-118590000D01*
X146510000Y-103950000D02*
X144139999Y-106320001D01*
X144139999Y-106320001D02*
X144139999Y-118039999D01*
X159130000Y-88340000D02*
X161630000Y-84550010D01*
X152310000Y-119792081D02*
X152310000Y-118590000D01*
X151312071Y-120790010D02*
X152310000Y-119792081D01*
X145750010Y-120790010D02*
X151312071Y-120790010D01*
X144690000Y-119730000D02*
X145750010Y-120790010D01*
X144690000Y-118590000D02*
X144690000Y-119730000D01*
X161470000Y-111300000D02*
X161470000Y-112570000D01*
X163720000Y-109050000D02*
X161470000Y-111300000D01*
X163720000Y-103908718D02*
X163720000Y-109050000D01*
X169570000Y-101870000D02*
X165758718Y-101870000D01*
X165758718Y-101870000D02*
X163720000Y-103908718D01*
X149639282Y-84669282D02*
X149479999Y-84509999D01*
X149639282Y-98420718D02*
X149639282Y-84669282D01*
X147940000Y-100120000D02*
X149639282Y-98420718D01*
X149479999Y-84509999D02*
X148630000Y-83660000D01*
X146510000Y-103950000D02*
X147940000Y-102520000D01*
X147940000Y-102520000D02*
X147940000Y-100120000D01*
X157040000Y-100940000D02*
X157040000Y-99720000D01*
X156040984Y-101939016D02*
X157040000Y-100940000D01*
X151510000Y-103950000D02*
X154139016Y-101939016D01*
X154139016Y-101939016D02*
X156040984Y-101939016D01*
X168430000Y-101960000D02*
X169570000Y-101870000D01*
X157880000Y-101960000D02*
X168430000Y-101960000D01*
X157040000Y-99720000D02*
X157040000Y-101120000D01*
X157040000Y-101120000D02*
X157880000Y-101960000D01*
X169570000Y-96790000D02*
X174650000Y-95520000D01*
X169560000Y-96800000D02*
X169570000Y-96790000D01*
X166280000Y-96650000D02*
X169560000Y-96800000D01*
X154800000Y-104460000D02*
X160148630Y-104460000D01*
X152740000Y-106520000D02*
X154800000Y-104460000D01*
X160148630Y-104460000D02*
X161280000Y-104460000D01*
X148880001Y-111579999D02*
X148880001Y-108072397D01*
X151510000Y-113950000D02*
X148880001Y-111579999D01*
X148880001Y-108072397D02*
X150432398Y-106520000D01*
X150432398Y-106520000D02*
X152740000Y-106520000D01*
X149770000Y-115690000D02*
X151510000Y-113950000D01*
X149770000Y-118590000D02*
X149770000Y-115690000D01*
X174650000Y-105680000D02*
X169570000Y-104410000D01*
X166330000Y-104410000D02*
X166280000Y-104460000D01*
X169570000Y-104410000D02*
X166330000Y-104410000D01*
X166270000Y-112570000D02*
X163970000Y-112570000D01*
X167830000Y-114130000D02*
X166270000Y-112570000D01*
X167830000Y-116590000D02*
X167830000Y-114130000D01*
X171390000Y-120150000D02*
X167830000Y-116590000D01*
X175922792Y-98060000D02*
X176940000Y-99077208D01*
X174650000Y-98060000D02*
X175922792Y-98060000D01*
X176940000Y-99077208D02*
X176940000Y-119220002D01*
X176940000Y-119220002D02*
X176010002Y-120150000D01*
X176010002Y-120150000D02*
X171390000Y-120150000D01*
X146090000Y-85790000D02*
X146090000Y-83660000D01*
X147360000Y-87340000D02*
X146090000Y-85790000D01*
X152630000Y-87360000D02*
X153710000Y-83660000D01*
X177200000Y-90430000D02*
X175549999Y-92080001D01*
X175549999Y-92080001D02*
X174650000Y-92980000D01*
X177200000Y-84470000D02*
X177200000Y-90430000D01*
X174640000Y-83580000D02*
X176310000Y-83580000D01*
X176310000Y-83580000D02*
X177200000Y-84470000D01*
X174640000Y-86120000D02*
X174640000Y-89620000D01*
X172550000Y-91710000D02*
X169570000Y-91710000D01*
X174640000Y-89620000D02*
X172550000Y-91710000D01*
X172300000Y-116550000D02*
X173460000Y-117710000D01*
X172300000Y-110280000D02*
X172300000Y-116550000D01*
X173460000Y-117710000D02*
X174590000Y-117710000D01*
X169570000Y-109490000D02*
X171510000Y-109490000D01*
X171510000Y-109490000D02*
X172300000Y-110280000D01*
X174650000Y-115110000D02*
X174590000Y-115170000D01*
X174650000Y-108220000D02*
X174650000Y-115110000D01*
D25*
X166460000Y-81720000D02*
X166550000Y-81670000D01*
X161630000Y-82850000D02*
X166460000Y-81720000D01*
D26*
G36*
X165604192Y-80564587D02*
G01*
X166560000Y-81520395D01*
X167515808Y-80564587D01*
X167421788Y-80305000D01*
X179465000Y-80305000D01*
X179465001Y-121815000D01*
X152599319Y-121815000D01*
X153409319Y-121005001D01*
X153471714Y-120953795D01*
X153676031Y-120704833D01*
X153827852Y-120420796D01*
X153905392Y-120165181D01*
X153921343Y-120112598D01*
X153952911Y-119792081D01*
X153951063Y-119773322D01*
X154020986Y-119830706D01*
X154278966Y-119968599D01*
X154558889Y-120053513D01*
X154777050Y-120075000D01*
X154922950Y-120075000D01*
X155141111Y-120053513D01*
X155421034Y-119968599D01*
X155679014Y-119830706D01*
X155905134Y-119645134D01*
X156090706Y-119419014D01*
X156120000Y-119364209D01*
X156149294Y-119419014D01*
X156334866Y-119645134D01*
X156560986Y-119830706D01*
X156818966Y-119968599D01*
X157098889Y-120053513D01*
X157317050Y-120075000D01*
X157462950Y-120075000D01*
X157681111Y-120053513D01*
X157961034Y-119968599D01*
X158219014Y-119830706D01*
X158445134Y-119645134D01*
X158630706Y-119419014D01*
X158768599Y-119161034D01*
X158853513Y-118881111D01*
X158882185Y-118590000D01*
X158853513Y-118298889D01*
X158768599Y-118018966D01*
X158630706Y-117760986D01*
X158445134Y-117534866D01*
X158219014Y-117349294D01*
X157961034Y-117211401D01*
X157681111Y-117126487D01*
X157462950Y-117105000D01*
X157317050Y-117105000D01*
X157098889Y-117126487D01*
X156818966Y-117211401D01*
X156560986Y-117349294D01*
X156334866Y-117534866D01*
X156149294Y-117760986D01*
X156120000Y-117815791D01*
X156090706Y-117760986D01*
X155905134Y-117534866D01*
X155679014Y-117349294D01*
X155421034Y-117211401D01*
X155141111Y-117126487D01*
X154922950Y-117105000D01*
X154777050Y-117105000D01*
X154558889Y-117126487D01*
X154278966Y-117211401D01*
X154020986Y-117349294D01*
X153794866Y-117534866D01*
X153676814Y-117678713D01*
X153676031Y-117677248D01*
X153471714Y-117428286D01*
X153222752Y-117223969D01*
X152938715Y-117072148D01*
X152630516Y-116978657D01*
X152310000Y-116947089D01*
X151989485Y-116978657D01*
X151681286Y-117072148D01*
X151405000Y-117219826D01*
X151405000Y-116367239D01*
X152122034Y-115650205D01*
X152364988Y-115549571D01*
X152660621Y-115352035D01*
X152912035Y-115100621D01*
X153109571Y-114804988D01*
X153245635Y-114476499D01*
X153315000Y-114127777D01*
X153315000Y-113772223D01*
X153245635Y-113423501D01*
X153109571Y-113095012D01*
X152912035Y-112799379D01*
X152660621Y-112547965D01*
X152364988Y-112350429D01*
X152036499Y-112214365D01*
X152023442Y-112211768D01*
X150515001Y-110852449D01*
X150515001Y-110456018D01*
X150655012Y-110549571D01*
X150983501Y-110685635D01*
X151332223Y-110755000D01*
X151687777Y-110755000D01*
X152036499Y-110685635D01*
X152364988Y-110549571D01*
X152660621Y-110352035D01*
X152912035Y-110100621D01*
X153109571Y-109804988D01*
X153245635Y-109476499D01*
X153315000Y-109127777D01*
X153315000Y-108772223D01*
X153245635Y-108423501D01*
X153117464Y-108114068D01*
X153368715Y-108037852D01*
X153458239Y-107990000D01*
X155558057Y-107990000D01*
X155585764Y-108271309D01*
X155667818Y-108541808D01*
X155801068Y-108791101D01*
X155980392Y-109009608D01*
X156198899Y-109188932D01*
X156448192Y-109322182D01*
X156718691Y-109404236D01*
X156929508Y-109425000D01*
X157070492Y-109425000D01*
X157281309Y-109404236D01*
X157551808Y-109322182D01*
X157801101Y-109188932D01*
X158019608Y-109009608D01*
X158198932Y-108791101D01*
X158332182Y-108541808D01*
X158414236Y-108271309D01*
X158441943Y-107990000D01*
X158414236Y-107708691D01*
X158332182Y-107438192D01*
X158198932Y-107188899D01*
X158019608Y-106970392D01*
X157801101Y-106791068D01*
X157551808Y-106657818D01*
X157281309Y-106575764D01*
X157070492Y-106555000D01*
X156929508Y-106555000D01*
X156718691Y-106575764D01*
X156448192Y-106657818D01*
X156198899Y-106791068D01*
X155980392Y-106970392D01*
X155801068Y-107188899D01*
X155667818Y-107438192D01*
X155585764Y-107708691D01*
X155558057Y-107990000D01*
X153458239Y-107990000D01*
X153652752Y-107886031D01*
X153901714Y-107681714D01*
X153952925Y-107619313D01*
X155477239Y-106095000D01*
X161360322Y-106095000D01*
X161600516Y-106071343D01*
X161908715Y-105977852D01*
X162085000Y-105883625D01*
X162085001Y-108372760D01*
X160370686Y-110087076D01*
X160308286Y-110138286D01*
X160103969Y-110387249D01*
X159952148Y-110671286D01*
X159858657Y-110979485D01*
X159836547Y-111203970D01*
X159827089Y-111300000D01*
X159835000Y-111380319D01*
X159835000Y-112650322D01*
X159858657Y-112890516D01*
X159952148Y-113198715D01*
X160103970Y-113482752D01*
X160308287Y-113731714D01*
X160557249Y-113936031D01*
X160841286Y-114087852D01*
X161149485Y-114181343D01*
X161470000Y-114212911D01*
X161790516Y-114181343D01*
X162098715Y-114087852D01*
X162382752Y-113936031D01*
X162631714Y-113731714D01*
X162638744Y-113723148D01*
X162639463Y-113724494D01*
X162718815Y-113821185D01*
X162815506Y-113900537D01*
X162925820Y-113959502D01*
X163045518Y-113995812D01*
X163170000Y-114008072D01*
X163192027Y-114008072D01*
X163341285Y-114087852D01*
X163649484Y-114181343D01*
X163889678Y-114205000D01*
X165592762Y-114205000D01*
X166195001Y-114807239D01*
X166195000Y-116500412D01*
X166174482Y-116494188D01*
X166050000Y-116481928D01*
X164350000Y-116481928D01*
X164225518Y-116494188D01*
X164105820Y-116530498D01*
X163995506Y-116589463D01*
X163898815Y-116668815D01*
X163819463Y-116765506D01*
X163760498Y-116875820D01*
X163739607Y-116944687D01*
X163715134Y-116914866D01*
X163489014Y-116729294D01*
X163231034Y-116591401D01*
X162951111Y-116506487D01*
X162732950Y-116485000D01*
X162587050Y-116485000D01*
X162368889Y-116506487D01*
X162088966Y-116591401D01*
X161830986Y-116729294D01*
X161604866Y-116914866D01*
X161419294Y-117140986D01*
X161281401Y-117398966D01*
X161196487Y-117678889D01*
X161167815Y-117970000D01*
X161196487Y-118261111D01*
X161281401Y-118541034D01*
X161419294Y-118799014D01*
X161604866Y-119025134D01*
X161830986Y-119210706D01*
X162088966Y-119348599D01*
X162368889Y-119433513D01*
X162587050Y-119455000D01*
X162732950Y-119455000D01*
X162951111Y-119433513D01*
X163231034Y-119348599D01*
X163489014Y-119210706D01*
X163715134Y-119025134D01*
X163739607Y-118995313D01*
X163760498Y-119064180D01*
X163819463Y-119174494D01*
X163898815Y-119271185D01*
X163995506Y-119350537D01*
X164105820Y-119409502D01*
X164225518Y-119445812D01*
X164350000Y-119458072D01*
X166050000Y-119458072D01*
X166174482Y-119445812D01*
X166294180Y-119409502D01*
X166404494Y-119350537D01*
X166501185Y-119271185D01*
X166580537Y-119174494D01*
X166639502Y-119064180D01*
X166675812Y-118944482D01*
X166688072Y-118820000D01*
X166688072Y-117767952D01*
X166730687Y-117802925D01*
X170177080Y-121249319D01*
X170228286Y-121311714D01*
X170477248Y-121516031D01*
X170761285Y-121667852D01*
X171069484Y-121761343D01*
X171309678Y-121785000D01*
X171309680Y-121785000D01*
X171389999Y-121792911D01*
X171470319Y-121785000D01*
X175929683Y-121785000D01*
X176010002Y-121792911D01*
X176090321Y-121785000D01*
X176090324Y-121785000D01*
X176330518Y-121761343D01*
X176638717Y-121667852D01*
X176922754Y-121516031D01*
X177171716Y-121311714D01*
X177222927Y-121249313D01*
X178039313Y-120432927D01*
X178101714Y-120381716D01*
X178306031Y-120132754D01*
X178457852Y-119848717D01*
X178475032Y-119792081D01*
X178551343Y-119540519D01*
X178582911Y-119220002D01*
X178575000Y-119139680D01*
X178575000Y-99157527D01*
X178582911Y-99077207D01*
X178574749Y-98994337D01*
X178551343Y-98756692D01*
X178457852Y-98448493D01*
X178306031Y-98164456D01*
X178101714Y-97915494D01*
X178039314Y-97864284D01*
X177135717Y-96960687D01*
X177084506Y-96898286D01*
X176835544Y-96693969D01*
X176551507Y-96542148D01*
X176243308Y-96448657D01*
X176013673Y-96426040D01*
X176058785Y-96365272D01*
X176196619Y-96074189D01*
X176275018Y-95761810D01*
X176290968Y-95440139D01*
X176243857Y-95121536D01*
X176135495Y-94818246D01*
X175970046Y-94541924D01*
X175753869Y-94303190D01*
X175680931Y-94249043D01*
X175749323Y-94192915D01*
X176762914Y-93179324D01*
X178299318Y-91642921D01*
X178361714Y-91591714D01*
X178566031Y-91342752D01*
X178717852Y-91058715D01*
X178811343Y-90750516D01*
X178829896Y-90562149D01*
X178842911Y-90430000D01*
X178835000Y-90349678D01*
X178835000Y-84550319D01*
X178842911Y-84469999D01*
X178833262Y-84372030D01*
X178811343Y-84149484D01*
X178717852Y-83841285D01*
X178566031Y-83557248D01*
X178361714Y-83308286D01*
X178299314Y-83257076D01*
X177522925Y-82480687D01*
X177471714Y-82418286D01*
X177222752Y-82213969D01*
X176938715Y-82062148D01*
X176630516Y-81968657D01*
X176390322Y-81945000D01*
X176390319Y-81945000D01*
X176310000Y-81937089D01*
X176229681Y-81945000D01*
X174559678Y-81945000D01*
X174319484Y-81968657D01*
X174011285Y-82062148D01*
X173727248Y-82213969D01*
X173478286Y-82418286D01*
X173273969Y-82667248D01*
X173122148Y-82951285D01*
X173028657Y-83259484D01*
X172997089Y-83580000D01*
X173028657Y-83900516D01*
X173122148Y-84208715D01*
X173273969Y-84492752D01*
X173463958Y-84724255D01*
X173435506Y-84739463D01*
X173338815Y-84818815D01*
X173259463Y-84915506D01*
X173200498Y-85025820D01*
X173164188Y-85145518D01*
X173151928Y-85270000D01*
X173151928Y-85435572D01*
X173122148Y-85491286D01*
X173028657Y-85799485D01*
X173005000Y-86039679D01*
X173005001Y-88942760D01*
X171872762Y-90075000D01*
X169489678Y-90075000D01*
X169249484Y-90098657D01*
X169007942Y-90171928D01*
X168670000Y-90171928D01*
X168545518Y-90184188D01*
X168425820Y-90220498D01*
X168315506Y-90279463D01*
X168218815Y-90358815D01*
X168139463Y-90455506D01*
X168080498Y-90565820D01*
X168044188Y-90685518D01*
X168031928Y-90810000D01*
X168031928Y-91147942D01*
X167958657Y-91389484D01*
X167927089Y-91710000D01*
X167958657Y-92030516D01*
X168031928Y-92272058D01*
X168031928Y-92610000D01*
X168044188Y-92734482D01*
X168080498Y-92854180D01*
X168139463Y-92964494D01*
X168218815Y-93061185D01*
X168315506Y-93140537D01*
X168425820Y-93199502D01*
X168442280Y-93204495D01*
X168287519Y-93393073D01*
X168144983Y-93659739D01*
X168057210Y-93949087D01*
X168027573Y-94250000D01*
X168057210Y-94550913D01*
X168144983Y-94840261D01*
X168286517Y-95105053D01*
X166274456Y-95013038D01*
X166033432Y-95025697D01*
X165721283Y-95105011D01*
X165430607Y-95243698D01*
X165172571Y-95436428D01*
X164957094Y-95675796D01*
X164792455Y-95952600D01*
X164684982Y-96256207D01*
X164638805Y-96574946D01*
X164655697Y-96896568D01*
X164735011Y-97208717D01*
X164873698Y-97499393D01*
X165066428Y-97757429D01*
X165305796Y-97972906D01*
X165582600Y-98137545D01*
X165886207Y-98245018D01*
X166125069Y-98279623D01*
X166906127Y-98315342D01*
X166781426Y-98340147D01*
X166520273Y-98448320D01*
X166285241Y-98605363D01*
X166085363Y-98805241D01*
X165928320Y-99040273D01*
X165820147Y-99301426D01*
X165765000Y-99578665D01*
X165765000Y-99861335D01*
X165820147Y-100138574D01*
X165860088Y-100235000D01*
X165839040Y-100235000D01*
X165758718Y-100227089D01*
X165438201Y-100258657D01*
X165291040Y-100303298D01*
X165219498Y-100325000D01*
X158675000Y-100325000D01*
X158675000Y-99639678D01*
X158651343Y-99399484D01*
X158557852Y-99091285D01*
X158406031Y-98807248D01*
X158201714Y-98558286D01*
X157952752Y-98353969D01*
X157668715Y-98202148D01*
X157360516Y-98108657D01*
X157040000Y-98077089D01*
X156719484Y-98108657D01*
X156411285Y-98202148D01*
X156127248Y-98353969D01*
X155878286Y-98558286D01*
X155673969Y-98807249D01*
X155632410Y-98885000D01*
X155522148Y-99091285D01*
X155428657Y-99399484D01*
X155419615Y-99491286D01*
X155405000Y-99639679D01*
X155405000Y-100262762D01*
X155363746Y-100304016D01*
X154167007Y-100304016D01*
X154034051Y-100299462D01*
X153926735Y-100317013D01*
X153818500Y-100327673D01*
X153768137Y-100342950D01*
X153716208Y-100351443D01*
X153614376Y-100389593D01*
X153510301Y-100421164D01*
X153463890Y-100445971D01*
X153414611Y-100464433D01*
X153322175Y-100521719D01*
X153226264Y-100572985D01*
X153123410Y-100657395D01*
X151124642Y-102186290D01*
X150983501Y-102214365D01*
X150740546Y-102315000D01*
X149575000Y-102315000D01*
X149575000Y-100797239D01*
X150738607Y-99633633D01*
X150800996Y-99582432D01*
X151005313Y-99333470D01*
X151157134Y-99049433D01*
X151173847Y-98994337D01*
X151250625Y-98741235D01*
X151282193Y-98420718D01*
X151274282Y-98340396D01*
X151274282Y-97878557D01*
X151378320Y-98129727D01*
X151535363Y-98364759D01*
X151735241Y-98564637D01*
X151970273Y-98721680D01*
X152231426Y-98829853D01*
X152508665Y-98885000D01*
X152791335Y-98885000D01*
X153068574Y-98829853D01*
X153329727Y-98721680D01*
X153564759Y-98564637D01*
X153764637Y-98364759D01*
X153921680Y-98129727D01*
X154029853Y-97868574D01*
X154085000Y-97591335D01*
X154085000Y-97308665D01*
X154029853Y-97031426D01*
X153921680Y-96770273D01*
X153764637Y-96535241D01*
X153738061Y-96508665D01*
X159845000Y-96508665D01*
X159845000Y-96791335D01*
X159900147Y-97068574D01*
X160008320Y-97329727D01*
X160165363Y-97564759D01*
X160365241Y-97764637D01*
X160600273Y-97921680D01*
X160861426Y-98029853D01*
X161138665Y-98085000D01*
X161421335Y-98085000D01*
X161698574Y-98029853D01*
X161959727Y-97921680D01*
X162194759Y-97764637D01*
X162394637Y-97564759D01*
X162551680Y-97329727D01*
X162659853Y-97068574D01*
X162715000Y-96791335D01*
X162715000Y-96508665D01*
X162659853Y-96231426D01*
X162551680Y-95970273D01*
X162394637Y-95735241D01*
X162194759Y-95535363D01*
X161959727Y-95378320D01*
X161698574Y-95270147D01*
X161421335Y-95215000D01*
X161138665Y-95215000D01*
X160861426Y-95270147D01*
X160600273Y-95378320D01*
X160365241Y-95535363D01*
X160165363Y-95735241D01*
X160008320Y-95970273D01*
X159900147Y-96231426D01*
X159845000Y-96508665D01*
X153738061Y-96508665D01*
X153564759Y-96335363D01*
X153329727Y-96178320D01*
X153068574Y-96070147D01*
X152791335Y-96015000D01*
X152508665Y-96015000D01*
X152231426Y-96070147D01*
X151970273Y-96178320D01*
X151735241Y-96335363D01*
X151535363Y-96535241D01*
X151378320Y-96770273D01*
X151274282Y-97021443D01*
X151274282Y-88273981D01*
X151371051Y-88415557D01*
X151601170Y-88640884D01*
X151870827Y-88816987D01*
X152169658Y-88937099D01*
X152486180Y-88996603D01*
X152808228Y-88993215D01*
X153123427Y-88927062D01*
X153419666Y-88800689D01*
X153685557Y-88618949D01*
X153910884Y-88388830D01*
X154060802Y-88159268D01*
X157295000Y-88159268D01*
X157295000Y-88520732D01*
X157365518Y-88875250D01*
X157503844Y-89209199D01*
X157704662Y-89509744D01*
X157960256Y-89765338D01*
X158260801Y-89966156D01*
X158594750Y-90104482D01*
X158949268Y-90175000D01*
X159310732Y-90175000D01*
X159665250Y-90104482D01*
X159999199Y-89966156D01*
X160299744Y-89765338D01*
X160555338Y-89509744D01*
X160756156Y-89209199D01*
X160894482Y-88875250D01*
X160963078Y-88530395D01*
X161880227Y-87140000D01*
X162291928Y-87140000D01*
X162291928Y-89540000D01*
X162304188Y-89664482D01*
X162340498Y-89784180D01*
X162399463Y-89894494D01*
X162478815Y-89991185D01*
X162575506Y-90070537D01*
X162685820Y-90129502D01*
X162805518Y-90165812D01*
X162930000Y-90178072D01*
X165330000Y-90178072D01*
X165454482Y-90165812D01*
X165574180Y-90129502D01*
X165684494Y-90070537D01*
X165781185Y-89991185D01*
X165860537Y-89894494D01*
X165919502Y-89784180D01*
X165955812Y-89664482D01*
X165968072Y-89540000D01*
X165968072Y-88208665D01*
X168375000Y-88208665D01*
X168375000Y-88491335D01*
X168430147Y-88768574D01*
X168538320Y-89029727D01*
X168695363Y-89264759D01*
X168895241Y-89464637D01*
X169130273Y-89621680D01*
X169391426Y-89729853D01*
X169668665Y-89785000D01*
X169951335Y-89785000D01*
X170228574Y-89729853D01*
X170489727Y-89621680D01*
X170724759Y-89464637D01*
X170924637Y-89264759D01*
X171081680Y-89029727D01*
X171189853Y-88768574D01*
X171245000Y-88491335D01*
X171245000Y-88208665D01*
X171189853Y-87931426D01*
X171081680Y-87670273D01*
X170924637Y-87435241D01*
X170724759Y-87235363D01*
X170489727Y-87078320D01*
X170228574Y-86970147D01*
X169951335Y-86915000D01*
X169668665Y-86915000D01*
X169391426Y-86970147D01*
X169130273Y-87078320D01*
X168895241Y-87235363D01*
X168695363Y-87435241D01*
X168538320Y-87670273D01*
X168430147Y-87931426D01*
X168375000Y-88208665D01*
X165968072Y-88208665D01*
X165968072Y-87140000D01*
X165955812Y-87015518D01*
X165919502Y-86895820D01*
X165860537Y-86785506D01*
X165781185Y-86688815D01*
X165684494Y-86609463D01*
X165574180Y-86550498D01*
X165454482Y-86514188D01*
X165330000Y-86501928D01*
X162930000Y-86501928D01*
X162805518Y-86514188D01*
X162685820Y-86550498D01*
X162575506Y-86609463D01*
X162478815Y-86688815D01*
X162399463Y-86785506D01*
X162340498Y-86895820D01*
X162304188Y-87015518D01*
X162291928Y-87140000D01*
X161880227Y-87140000D01*
X163039044Y-85383239D01*
X163151554Y-85169711D01*
X163243216Y-84860963D01*
X163272882Y-84540266D01*
X163239414Y-84219942D01*
X163144095Y-83912303D01*
X163018072Y-83679857D01*
X163018072Y-83650000D01*
X163005812Y-83525518D01*
X162969502Y-83405820D01*
X162910537Y-83295506D01*
X162831185Y-83198815D01*
X162734494Y-83119463D01*
X162624180Y-83060498D01*
X162524060Y-83030127D01*
X162518762Y-83012125D01*
X162517731Y-83010153D01*
X162517087Y-83008020D01*
X162489012Y-82955219D01*
X162461345Y-82902297D01*
X162459951Y-82900563D01*
X162458905Y-82898596D01*
X162421117Y-82852263D01*
X162407570Y-82835413D01*
X165604192Y-82835413D01*
X165699956Y-83099814D01*
X165989571Y-83240704D01*
X166301108Y-83322384D01*
X166622595Y-83341718D01*
X166941675Y-83297961D01*
X167200150Y-83208665D01*
X168375000Y-83208665D01*
X168375000Y-83491335D01*
X168430147Y-83768574D01*
X168538320Y-84029727D01*
X168695363Y-84264759D01*
X168895241Y-84464637D01*
X169130273Y-84621680D01*
X169391426Y-84729853D01*
X169668665Y-84785000D01*
X169951335Y-84785000D01*
X170228574Y-84729853D01*
X170489727Y-84621680D01*
X170724759Y-84464637D01*
X170924637Y-84264759D01*
X171081680Y-84029727D01*
X171189853Y-83768574D01*
X171245000Y-83491335D01*
X171245000Y-83208665D01*
X171189853Y-82931426D01*
X171081680Y-82670273D01*
X170924637Y-82435241D01*
X170724759Y-82235363D01*
X170489727Y-82078320D01*
X170228574Y-81970147D01*
X169951335Y-81915000D01*
X169668665Y-81915000D01*
X169391426Y-81970147D01*
X169130273Y-82078320D01*
X168895241Y-82235363D01*
X168695363Y-82435241D01*
X168538320Y-82670273D01*
X168430147Y-82931426D01*
X168375000Y-83208665D01*
X167200150Y-83208665D01*
X167246088Y-83192795D01*
X167420044Y-83099814D01*
X167515808Y-82835413D01*
X166560000Y-81879605D01*
X165604192Y-82835413D01*
X162407570Y-82835413D01*
X162383690Y-82805714D01*
X162381985Y-82804283D01*
X162380577Y-82802557D01*
X162334527Y-82764461D01*
X162288754Y-82726053D01*
X162286802Y-82724980D01*
X162285087Y-82723561D01*
X162232539Y-82695149D01*
X162180153Y-82666349D01*
X162178029Y-82665675D01*
X162176072Y-82664617D01*
X162119050Y-82646966D01*
X162062024Y-82628876D01*
X162059808Y-82628627D01*
X162057684Y-82627970D01*
X161998257Y-82621724D01*
X161938866Y-82615062D01*
X161934596Y-82615032D01*
X161934433Y-82615015D01*
X161934270Y-82615030D01*
X161930000Y-82615000D01*
X161330000Y-82615000D01*
X161270495Y-82620834D01*
X161211013Y-82626248D01*
X161208882Y-82626875D01*
X161206661Y-82627093D01*
X161149379Y-82644388D01*
X161092125Y-82661238D01*
X161090153Y-82662269D01*
X161088020Y-82662913D01*
X161035219Y-82690988D01*
X160982297Y-82718655D01*
X160980563Y-82720049D01*
X160978596Y-82721095D01*
X160932263Y-82758883D01*
X160885714Y-82796310D01*
X160884283Y-82798015D01*
X160882557Y-82799423D01*
X160844461Y-82845473D01*
X160806053Y-82891246D01*
X160804980Y-82893198D01*
X160803561Y-82894913D01*
X160775149Y-82947461D01*
X160746349Y-82999847D01*
X160745675Y-83001971D01*
X160744617Y-83003928D01*
X160736566Y-83029937D01*
X160635820Y-83060498D01*
X160525506Y-83119463D01*
X160428815Y-83198815D01*
X160349463Y-83295506D01*
X160290498Y-83405820D01*
X160254188Y-83525518D01*
X160241928Y-83650000D01*
X160241928Y-83684986D01*
X158230753Y-86733922D01*
X157960256Y-86914662D01*
X157704662Y-87170256D01*
X157503844Y-87470801D01*
X157365518Y-87804750D01*
X157295000Y-88159268D01*
X154060802Y-88159268D01*
X154086987Y-88119173D01*
X154176998Y-87895230D01*
X155302011Y-84041022D01*
X155346603Y-83803821D01*
X155343215Y-83481772D01*
X155277062Y-83166573D01*
X155150689Y-82870334D01*
X154968949Y-82604443D01*
X154738830Y-82379116D01*
X154469173Y-82203013D01*
X154170342Y-82082902D01*
X153853820Y-82023397D01*
X153531771Y-82026785D01*
X153216571Y-82092938D01*
X152920333Y-82219311D01*
X152654442Y-82401051D01*
X152435455Y-82624696D01*
X152331714Y-82498286D01*
X152082752Y-82293969D01*
X151798715Y-82142148D01*
X151490516Y-82048657D01*
X151250322Y-82025000D01*
X148710319Y-82025000D01*
X148630000Y-82017089D01*
X148549681Y-82025000D01*
X148549678Y-82025000D01*
X148309484Y-82048657D01*
X148001285Y-82142148D01*
X147717248Y-82293969D01*
X147485745Y-82483958D01*
X147470537Y-82455506D01*
X147391185Y-82358815D01*
X147294494Y-82279463D01*
X147184180Y-82220498D01*
X147064482Y-82184188D01*
X146940000Y-82171928D01*
X146774429Y-82171928D01*
X146718715Y-82142148D01*
X146410516Y-82048657D01*
X146090000Y-82017089D01*
X145769485Y-82048657D01*
X145461286Y-82142148D01*
X145405572Y-82171928D01*
X145240000Y-82171928D01*
X145115518Y-82184188D01*
X144995820Y-82220498D01*
X144885506Y-82279463D01*
X144788815Y-82358815D01*
X144709463Y-82455506D01*
X144650498Y-82565820D01*
X144614188Y-82685518D01*
X144601928Y-82810000D01*
X144601928Y-82975572D01*
X144572149Y-83031285D01*
X144478658Y-83339484D01*
X144455001Y-83579678D01*
X144455000Y-85789929D01*
X144454874Y-85949739D01*
X144470682Y-86029542D01*
X144478657Y-86110515D01*
X144501898Y-86187130D01*
X144517455Y-86265667D01*
X144548531Y-86340858D01*
X144555800Y-86364821D01*
X142835000Y-86364821D01*
X142835000Y-81762595D01*
X164918282Y-81762595D01*
X164962039Y-82081675D01*
X165067205Y-82386088D01*
X165160186Y-82560044D01*
X165424587Y-82655808D01*
X166380395Y-81700000D01*
X166739605Y-81700000D01*
X167695413Y-82655808D01*
X167959814Y-82560044D01*
X168100704Y-82270429D01*
X168182384Y-81958892D01*
X168201718Y-81637405D01*
X168157961Y-81318325D01*
X168052795Y-81013912D01*
X167959814Y-80839956D01*
X167695413Y-80744192D01*
X166739605Y-81700000D01*
X166380395Y-81700000D01*
X165424587Y-80744192D01*
X165160186Y-80839956D01*
X165019296Y-81129571D01*
X164937616Y-81441108D01*
X164918282Y-81762595D01*
X142835000Y-81762595D01*
X142835000Y-80305000D01*
X165698212Y-80305000D01*
X165604192Y-80564587D01*
X165604192Y-80564587D01*
G37*
X165604192Y-80564587D02*
X166560000Y-81520395D01*
X167515808Y-80564587D01*
X167421788Y-80305000D01*
X179465000Y-80305000D01*
X179465001Y-121815000D01*
X152599319Y-121815000D01*
X153409319Y-121005001D01*
X153471714Y-120953795D01*
X153676031Y-120704833D01*
X153827852Y-120420796D01*
X153905392Y-120165181D01*
X153921343Y-120112598D01*
X153952911Y-119792081D01*
X153951063Y-119773322D01*
X154020986Y-119830706D01*
X154278966Y-119968599D01*
X154558889Y-120053513D01*
X154777050Y-120075000D01*
X154922950Y-120075000D01*
X155141111Y-120053513D01*
X155421034Y-119968599D01*
X155679014Y-119830706D01*
X155905134Y-119645134D01*
X156090706Y-119419014D01*
X156120000Y-119364209D01*
X156149294Y-119419014D01*
X156334866Y-119645134D01*
X156560986Y-119830706D01*
X156818966Y-119968599D01*
X157098889Y-120053513D01*
X157317050Y-120075000D01*
X157462950Y-120075000D01*
X157681111Y-120053513D01*
X157961034Y-119968599D01*
X158219014Y-119830706D01*
X158445134Y-119645134D01*
X158630706Y-119419014D01*
X158768599Y-119161034D01*
X158853513Y-118881111D01*
X158882185Y-118590000D01*
X158853513Y-118298889D01*
X158768599Y-118018966D01*
X158630706Y-117760986D01*
X158445134Y-117534866D01*
X158219014Y-117349294D01*
X157961034Y-117211401D01*
X157681111Y-117126487D01*
X157462950Y-117105000D01*
X157317050Y-117105000D01*
X157098889Y-117126487D01*
X156818966Y-117211401D01*
X156560986Y-117349294D01*
X156334866Y-117534866D01*
X156149294Y-117760986D01*
X156120000Y-117815791D01*
X156090706Y-117760986D01*
X155905134Y-117534866D01*
X155679014Y-117349294D01*
X155421034Y-117211401D01*
X155141111Y-117126487D01*
X154922950Y-117105000D01*
X154777050Y-117105000D01*
X154558889Y-117126487D01*
X154278966Y-117211401D01*
X154020986Y-117349294D01*
X153794866Y-117534866D01*
X153676814Y-117678713D01*
X153676031Y-117677248D01*
X153471714Y-117428286D01*
X153222752Y-117223969D01*
X152938715Y-117072148D01*
X152630516Y-116978657D01*
X152310000Y-116947089D01*
X151989485Y-116978657D01*
X151681286Y-117072148D01*
X151405000Y-117219826D01*
X151405000Y-116367239D01*
X152122034Y-115650205D01*
X152364988Y-115549571D01*
X152660621Y-115352035D01*
X152912035Y-115100621D01*
X153109571Y-114804988D01*
X153245635Y-114476499D01*
X153315000Y-114127777D01*
X153315000Y-113772223D01*
X153245635Y-113423501D01*
X153109571Y-113095012D01*
X152912035Y-112799379D01*
X152660621Y-112547965D01*
X152364988Y-112350429D01*
X152036499Y-112214365D01*
X152023442Y-112211768D01*
X150515001Y-110852449D01*
X150515001Y-110456018D01*
X150655012Y-110549571D01*
X150983501Y-110685635D01*
X151332223Y-110755000D01*
X151687777Y-110755000D01*
X152036499Y-110685635D01*
X152364988Y-110549571D01*
X152660621Y-110352035D01*
X152912035Y-110100621D01*
X153109571Y-109804988D01*
X153245635Y-109476499D01*
X153315000Y-109127777D01*
X153315000Y-108772223D01*
X153245635Y-108423501D01*
X153117464Y-108114068D01*
X153368715Y-108037852D01*
X153458239Y-107990000D01*
X155558057Y-107990000D01*
X155585764Y-108271309D01*
X155667818Y-108541808D01*
X155801068Y-108791101D01*
X155980392Y-109009608D01*
X156198899Y-109188932D01*
X156448192Y-109322182D01*
X156718691Y-109404236D01*
X156929508Y-109425000D01*
X157070492Y-109425000D01*
X157281309Y-109404236D01*
X157551808Y-109322182D01*
X157801101Y-109188932D01*
X158019608Y-109009608D01*
X158198932Y-108791101D01*
X158332182Y-108541808D01*
X158414236Y-108271309D01*
X158441943Y-107990000D01*
X158414236Y-107708691D01*
X158332182Y-107438192D01*
X158198932Y-107188899D01*
X158019608Y-106970392D01*
X157801101Y-106791068D01*
X157551808Y-106657818D01*
X157281309Y-106575764D01*
X157070492Y-106555000D01*
X156929508Y-106555000D01*
X156718691Y-106575764D01*
X156448192Y-106657818D01*
X156198899Y-106791068D01*
X155980392Y-106970392D01*
X155801068Y-107188899D01*
X155667818Y-107438192D01*
X155585764Y-107708691D01*
X155558057Y-107990000D01*
X153458239Y-107990000D01*
X153652752Y-107886031D01*
X153901714Y-107681714D01*
X153952925Y-107619313D01*
X155477239Y-106095000D01*
X161360322Y-106095000D01*
X161600516Y-106071343D01*
X161908715Y-105977852D01*
X162085000Y-105883625D01*
X162085001Y-108372760D01*
X160370686Y-110087076D01*
X160308286Y-110138286D01*
X160103969Y-110387249D01*
X159952148Y-110671286D01*
X159858657Y-110979485D01*
X159836547Y-111203970D01*
X159827089Y-111300000D01*
X159835000Y-111380319D01*
X159835000Y-112650322D01*
X159858657Y-112890516D01*
X159952148Y-113198715D01*
X160103970Y-113482752D01*
X160308287Y-113731714D01*
X160557249Y-113936031D01*
X160841286Y-114087852D01*
X161149485Y-114181343D01*
X161470000Y-114212911D01*
X161790516Y-114181343D01*
X162098715Y-114087852D01*
X162382752Y-113936031D01*
X162631714Y-113731714D01*
X162638744Y-113723148D01*
X162639463Y-113724494D01*
X162718815Y-113821185D01*
X162815506Y-113900537D01*
X162925820Y-113959502D01*
X163045518Y-113995812D01*
X163170000Y-114008072D01*
X163192027Y-114008072D01*
X163341285Y-114087852D01*
X163649484Y-114181343D01*
X163889678Y-114205000D01*
X165592762Y-114205000D01*
X166195001Y-114807239D01*
X166195000Y-116500412D01*
X166174482Y-116494188D01*
X166050000Y-116481928D01*
X164350000Y-116481928D01*
X164225518Y-116494188D01*
X164105820Y-116530498D01*
X163995506Y-116589463D01*
X163898815Y-116668815D01*
X163819463Y-116765506D01*
X163760498Y-116875820D01*
X163739607Y-116944687D01*
X163715134Y-116914866D01*
X163489014Y-116729294D01*
X163231034Y-116591401D01*
X162951111Y-116506487D01*
X162732950Y-116485000D01*
X162587050Y-116485000D01*
X162368889Y-116506487D01*
X162088966Y-116591401D01*
X161830986Y-116729294D01*
X161604866Y-116914866D01*
X161419294Y-117140986D01*
X161281401Y-117398966D01*
X161196487Y-117678889D01*
X161167815Y-117970000D01*
X161196487Y-118261111D01*
X161281401Y-118541034D01*
X161419294Y-118799014D01*
X161604866Y-119025134D01*
X161830986Y-119210706D01*
X162088966Y-119348599D01*
X162368889Y-119433513D01*
X162587050Y-119455000D01*
X162732950Y-119455000D01*
X162951111Y-119433513D01*
X163231034Y-119348599D01*
X163489014Y-119210706D01*
X163715134Y-119025134D01*
X163739607Y-118995313D01*
X163760498Y-119064180D01*
X163819463Y-119174494D01*
X163898815Y-119271185D01*
X163995506Y-119350537D01*
X164105820Y-119409502D01*
X164225518Y-119445812D01*
X164350000Y-119458072D01*
X166050000Y-119458072D01*
X166174482Y-119445812D01*
X166294180Y-119409502D01*
X166404494Y-119350537D01*
X166501185Y-119271185D01*
X166580537Y-119174494D01*
X166639502Y-119064180D01*
X166675812Y-118944482D01*
X166688072Y-118820000D01*
X166688072Y-117767952D01*
X166730687Y-117802925D01*
X170177080Y-121249319D01*
X170228286Y-121311714D01*
X170477248Y-121516031D01*
X170761285Y-121667852D01*
X171069484Y-121761343D01*
X171309678Y-121785000D01*
X171309680Y-121785000D01*
X171389999Y-121792911D01*
X171470319Y-121785000D01*
X175929683Y-121785000D01*
X176010002Y-121792911D01*
X176090321Y-121785000D01*
X176090324Y-121785000D01*
X176330518Y-121761343D01*
X176638717Y-121667852D01*
X176922754Y-121516031D01*
X177171716Y-121311714D01*
X177222927Y-121249313D01*
X178039313Y-120432927D01*
X178101714Y-120381716D01*
X178306031Y-120132754D01*
X178457852Y-119848717D01*
X178475032Y-119792081D01*
X178551343Y-119540519D01*
X178582911Y-119220002D01*
X178575000Y-119139680D01*
X178575000Y-99157527D01*
X178582911Y-99077207D01*
X178574749Y-98994337D01*
X178551343Y-98756692D01*
X178457852Y-98448493D01*
X178306031Y-98164456D01*
X178101714Y-97915494D01*
X178039314Y-97864284D01*
X177135717Y-96960687D01*
X177084506Y-96898286D01*
X176835544Y-96693969D01*
X176551507Y-96542148D01*
X176243308Y-96448657D01*
X176013673Y-96426040D01*
X176058785Y-96365272D01*
X176196619Y-96074189D01*
X176275018Y-95761810D01*
X176290968Y-95440139D01*
X176243857Y-95121536D01*
X176135495Y-94818246D01*
X175970046Y-94541924D01*
X175753869Y-94303190D01*
X175680931Y-94249043D01*
X175749323Y-94192915D01*
X176762914Y-93179324D01*
X178299318Y-91642921D01*
X178361714Y-91591714D01*
X178566031Y-91342752D01*
X178717852Y-91058715D01*
X178811343Y-90750516D01*
X178829896Y-90562149D01*
X178842911Y-90430000D01*
X178835000Y-90349678D01*
X178835000Y-84550319D01*
X178842911Y-84469999D01*
X178833262Y-84372030D01*
X178811343Y-84149484D01*
X178717852Y-83841285D01*
X178566031Y-83557248D01*
X178361714Y-83308286D01*
X178299314Y-83257076D01*
X177522925Y-82480687D01*
X177471714Y-82418286D01*
X177222752Y-82213969D01*
X176938715Y-82062148D01*
X176630516Y-81968657D01*
X176390322Y-81945000D01*
X176390319Y-81945000D01*
X176310000Y-81937089D01*
X176229681Y-81945000D01*
X174559678Y-81945000D01*
X174319484Y-81968657D01*
X174011285Y-82062148D01*
X173727248Y-82213969D01*
X173478286Y-82418286D01*
X173273969Y-82667248D01*
X173122148Y-82951285D01*
X173028657Y-83259484D01*
X172997089Y-83580000D01*
X173028657Y-83900516D01*
X173122148Y-84208715D01*
X173273969Y-84492752D01*
X173463958Y-84724255D01*
X173435506Y-84739463D01*
X173338815Y-84818815D01*
X173259463Y-84915506D01*
X173200498Y-85025820D01*
X173164188Y-85145518D01*
X173151928Y-85270000D01*
X173151928Y-85435572D01*
X173122148Y-85491286D01*
X173028657Y-85799485D01*
X173005000Y-86039679D01*
X173005001Y-88942760D01*
X171872762Y-90075000D01*
X169489678Y-90075000D01*
X169249484Y-90098657D01*
X169007942Y-90171928D01*
X168670000Y-90171928D01*
X168545518Y-90184188D01*
X168425820Y-90220498D01*
X168315506Y-90279463D01*
X168218815Y-90358815D01*
X168139463Y-90455506D01*
X168080498Y-90565820D01*
X168044188Y-90685518D01*
X168031928Y-90810000D01*
X168031928Y-91147942D01*
X167958657Y-91389484D01*
X167927089Y-91710000D01*
X167958657Y-92030516D01*
X168031928Y-92272058D01*
X168031928Y-92610000D01*
X168044188Y-92734482D01*
X168080498Y-92854180D01*
X168139463Y-92964494D01*
X168218815Y-93061185D01*
X168315506Y-93140537D01*
X168425820Y-93199502D01*
X168442280Y-93204495D01*
X168287519Y-93393073D01*
X168144983Y-93659739D01*
X168057210Y-93949087D01*
X168027573Y-94250000D01*
X168057210Y-94550913D01*
X168144983Y-94840261D01*
X168286517Y-95105053D01*
X166274456Y-95013038D01*
X166033432Y-95025697D01*
X165721283Y-95105011D01*
X165430607Y-95243698D01*
X165172571Y-95436428D01*
X164957094Y-95675796D01*
X164792455Y-95952600D01*
X164684982Y-96256207D01*
X164638805Y-96574946D01*
X164655697Y-96896568D01*
X164735011Y-97208717D01*
X164873698Y-97499393D01*
X165066428Y-97757429D01*
X165305796Y-97972906D01*
X165582600Y-98137545D01*
X165886207Y-98245018D01*
X166125069Y-98279623D01*
X166906127Y-98315342D01*
X166781426Y-98340147D01*
X166520273Y-98448320D01*
X166285241Y-98605363D01*
X166085363Y-98805241D01*
X165928320Y-99040273D01*
X165820147Y-99301426D01*
X165765000Y-99578665D01*
X165765000Y-99861335D01*
X165820147Y-100138574D01*
X165860088Y-100235000D01*
X165839040Y-100235000D01*
X165758718Y-100227089D01*
X165438201Y-100258657D01*
X165291040Y-100303298D01*
X165219498Y-100325000D01*
X158675000Y-100325000D01*
X158675000Y-99639678D01*
X158651343Y-99399484D01*
X158557852Y-99091285D01*
X158406031Y-98807248D01*
X158201714Y-98558286D01*
X157952752Y-98353969D01*
X157668715Y-98202148D01*
X157360516Y-98108657D01*
X157040000Y-98077089D01*
X156719484Y-98108657D01*
X156411285Y-98202148D01*
X156127248Y-98353969D01*
X155878286Y-98558286D01*
X155673969Y-98807249D01*
X155632410Y-98885000D01*
X155522148Y-99091285D01*
X155428657Y-99399484D01*
X155419615Y-99491286D01*
X155405000Y-99639679D01*
X155405000Y-100262762D01*
X155363746Y-100304016D01*
X154167007Y-100304016D01*
X154034051Y-100299462D01*
X153926735Y-100317013D01*
X153818500Y-100327673D01*
X153768137Y-100342950D01*
X153716208Y-100351443D01*
X153614376Y-100389593D01*
X153510301Y-100421164D01*
X153463890Y-100445971D01*
X153414611Y-100464433D01*
X153322175Y-100521719D01*
X153226264Y-100572985D01*
X153123410Y-100657395D01*
X151124642Y-102186290D01*
X150983501Y-102214365D01*
X150740546Y-102315000D01*
X149575000Y-102315000D01*
X149575000Y-100797239D01*
X150738607Y-99633633D01*
X150800996Y-99582432D01*
X151005313Y-99333470D01*
X151157134Y-99049433D01*
X151173847Y-98994337D01*
X151250625Y-98741235D01*
X151282193Y-98420718D01*
X151274282Y-98340396D01*
X151274282Y-97878557D01*
X151378320Y-98129727D01*
X151535363Y-98364759D01*
X151735241Y-98564637D01*
X151970273Y-98721680D01*
X152231426Y-98829853D01*
X152508665Y-98885000D01*
X152791335Y-98885000D01*
X153068574Y-98829853D01*
X153329727Y-98721680D01*
X153564759Y-98564637D01*
X153764637Y-98364759D01*
X153921680Y-98129727D01*
X154029853Y-97868574D01*
X154085000Y-97591335D01*
X154085000Y-97308665D01*
X154029853Y-97031426D01*
X153921680Y-96770273D01*
X153764637Y-96535241D01*
X153738061Y-96508665D01*
X159845000Y-96508665D01*
X159845000Y-96791335D01*
X159900147Y-97068574D01*
X160008320Y-97329727D01*
X160165363Y-97564759D01*
X160365241Y-97764637D01*
X160600273Y-97921680D01*
X160861426Y-98029853D01*
X161138665Y-98085000D01*
X161421335Y-98085000D01*
X161698574Y-98029853D01*
X161959727Y-97921680D01*
X162194759Y-97764637D01*
X162394637Y-97564759D01*
X162551680Y-97329727D01*
X162659853Y-97068574D01*
X162715000Y-96791335D01*
X162715000Y-96508665D01*
X162659853Y-96231426D01*
X162551680Y-95970273D01*
X162394637Y-95735241D01*
X162194759Y-95535363D01*
X161959727Y-95378320D01*
X161698574Y-95270147D01*
X161421335Y-95215000D01*
X161138665Y-95215000D01*
X160861426Y-95270147D01*
X160600273Y-95378320D01*
X160365241Y-95535363D01*
X160165363Y-95735241D01*
X160008320Y-95970273D01*
X159900147Y-96231426D01*
X159845000Y-96508665D01*
X153738061Y-96508665D01*
X153564759Y-96335363D01*
X153329727Y-96178320D01*
X153068574Y-96070147D01*
X152791335Y-96015000D01*
X152508665Y-96015000D01*
X152231426Y-96070147D01*
X151970273Y-96178320D01*
X151735241Y-96335363D01*
X151535363Y-96535241D01*
X151378320Y-96770273D01*
X151274282Y-97021443D01*
X151274282Y-88273981D01*
X151371051Y-88415557D01*
X151601170Y-88640884D01*
X151870827Y-88816987D01*
X152169658Y-88937099D01*
X152486180Y-88996603D01*
X152808228Y-88993215D01*
X153123427Y-88927062D01*
X153419666Y-88800689D01*
X153685557Y-88618949D01*
X153910884Y-88388830D01*
X154060802Y-88159268D01*
X157295000Y-88159268D01*
X157295000Y-88520732D01*
X157365518Y-88875250D01*
X157503844Y-89209199D01*
X157704662Y-89509744D01*
X157960256Y-89765338D01*
X158260801Y-89966156D01*
X158594750Y-90104482D01*
X158949268Y-90175000D01*
X159310732Y-90175000D01*
X159665250Y-90104482D01*
X159999199Y-89966156D01*
X160299744Y-89765338D01*
X160555338Y-89509744D01*
X160756156Y-89209199D01*
X160894482Y-88875250D01*
X160963078Y-88530395D01*
X161880227Y-87140000D01*
X162291928Y-87140000D01*
X162291928Y-89540000D01*
X162304188Y-89664482D01*
X162340498Y-89784180D01*
X162399463Y-89894494D01*
X162478815Y-89991185D01*
X162575506Y-90070537D01*
X162685820Y-90129502D01*
X162805518Y-90165812D01*
X162930000Y-90178072D01*
X165330000Y-90178072D01*
X165454482Y-90165812D01*
X165574180Y-90129502D01*
X165684494Y-90070537D01*
X165781185Y-89991185D01*
X165860537Y-89894494D01*
X165919502Y-89784180D01*
X165955812Y-89664482D01*
X165968072Y-89540000D01*
X165968072Y-88208665D01*
X168375000Y-88208665D01*
X168375000Y-88491335D01*
X168430147Y-88768574D01*
X168538320Y-89029727D01*
X168695363Y-89264759D01*
X168895241Y-89464637D01*
X169130273Y-89621680D01*
X169391426Y-89729853D01*
X169668665Y-89785000D01*
X169951335Y-89785000D01*
X170228574Y-89729853D01*
X170489727Y-89621680D01*
X170724759Y-89464637D01*
X170924637Y-89264759D01*
X171081680Y-89029727D01*
X171189853Y-88768574D01*
X171245000Y-88491335D01*
X171245000Y-88208665D01*
X171189853Y-87931426D01*
X171081680Y-87670273D01*
X170924637Y-87435241D01*
X170724759Y-87235363D01*
X170489727Y-87078320D01*
X170228574Y-86970147D01*
X169951335Y-86915000D01*
X169668665Y-86915000D01*
X169391426Y-86970147D01*
X169130273Y-87078320D01*
X168895241Y-87235363D01*
X168695363Y-87435241D01*
X168538320Y-87670273D01*
X168430147Y-87931426D01*
X168375000Y-88208665D01*
X165968072Y-88208665D01*
X165968072Y-87140000D01*
X165955812Y-87015518D01*
X165919502Y-86895820D01*
X165860537Y-86785506D01*
X165781185Y-86688815D01*
X165684494Y-86609463D01*
X165574180Y-86550498D01*
X165454482Y-86514188D01*
X165330000Y-86501928D01*
X162930000Y-86501928D01*
X162805518Y-86514188D01*
X162685820Y-86550498D01*
X162575506Y-86609463D01*
X162478815Y-86688815D01*
X162399463Y-86785506D01*
X162340498Y-86895820D01*
X162304188Y-87015518D01*
X162291928Y-87140000D01*
X161880227Y-87140000D01*
X163039044Y-85383239D01*
X163151554Y-85169711D01*
X163243216Y-84860963D01*
X163272882Y-84540266D01*
X163239414Y-84219942D01*
X163144095Y-83912303D01*
X163018072Y-83679857D01*
X163018072Y-83650000D01*
X163005812Y-83525518D01*
X162969502Y-83405820D01*
X162910537Y-83295506D01*
X162831185Y-83198815D01*
X162734494Y-83119463D01*
X162624180Y-83060498D01*
X162524060Y-83030127D01*
X162518762Y-83012125D01*
X162517731Y-83010153D01*
X162517087Y-83008020D01*
X162489012Y-82955219D01*
X162461345Y-82902297D01*
X162459951Y-82900563D01*
X162458905Y-82898596D01*
X162421117Y-82852263D01*
X162407570Y-82835413D01*
X165604192Y-82835413D01*
X165699956Y-83099814D01*
X165989571Y-83240704D01*
X166301108Y-83322384D01*
X166622595Y-83341718D01*
X166941675Y-83297961D01*
X167200150Y-83208665D01*
X168375000Y-83208665D01*
X168375000Y-83491335D01*
X168430147Y-83768574D01*
X168538320Y-84029727D01*
X168695363Y-84264759D01*
X168895241Y-84464637D01*
X169130273Y-84621680D01*
X169391426Y-84729853D01*
X169668665Y-84785000D01*
X169951335Y-84785000D01*
X170228574Y-84729853D01*
X170489727Y-84621680D01*
X170724759Y-84464637D01*
X170924637Y-84264759D01*
X171081680Y-84029727D01*
X171189853Y-83768574D01*
X171245000Y-83491335D01*
X171245000Y-83208665D01*
X171189853Y-82931426D01*
X171081680Y-82670273D01*
X170924637Y-82435241D01*
X170724759Y-82235363D01*
X170489727Y-82078320D01*
X170228574Y-81970147D01*
X169951335Y-81915000D01*
X169668665Y-81915000D01*
X169391426Y-81970147D01*
X169130273Y-82078320D01*
X168895241Y-82235363D01*
X168695363Y-82435241D01*
X168538320Y-82670273D01*
X168430147Y-82931426D01*
X168375000Y-83208665D01*
X167200150Y-83208665D01*
X167246088Y-83192795D01*
X167420044Y-83099814D01*
X167515808Y-82835413D01*
X166560000Y-81879605D01*
X165604192Y-82835413D01*
X162407570Y-82835413D01*
X162383690Y-82805714D01*
X162381985Y-82804283D01*
X162380577Y-82802557D01*
X162334527Y-82764461D01*
X162288754Y-82726053D01*
X162286802Y-82724980D01*
X162285087Y-82723561D01*
X162232539Y-82695149D01*
X162180153Y-82666349D01*
X162178029Y-82665675D01*
X162176072Y-82664617D01*
X162119050Y-82646966D01*
X162062024Y-82628876D01*
X162059808Y-82628627D01*
X162057684Y-82627970D01*
X161998257Y-82621724D01*
X161938866Y-82615062D01*
X161934596Y-82615032D01*
X161934433Y-82615015D01*
X161934270Y-82615030D01*
X161930000Y-82615000D01*
X161330000Y-82615000D01*
X161270495Y-82620834D01*
X161211013Y-82626248D01*
X161208882Y-82626875D01*
X161206661Y-82627093D01*
X161149379Y-82644388D01*
X161092125Y-82661238D01*
X161090153Y-82662269D01*
X161088020Y-82662913D01*
X161035219Y-82690988D01*
X160982297Y-82718655D01*
X160980563Y-82720049D01*
X160978596Y-82721095D01*
X160932263Y-82758883D01*
X160885714Y-82796310D01*
X160884283Y-82798015D01*
X160882557Y-82799423D01*
X160844461Y-82845473D01*
X160806053Y-82891246D01*
X160804980Y-82893198D01*
X160803561Y-82894913D01*
X160775149Y-82947461D01*
X160746349Y-82999847D01*
X160745675Y-83001971D01*
X160744617Y-83003928D01*
X160736566Y-83029937D01*
X160635820Y-83060498D01*
X160525506Y-83119463D01*
X160428815Y-83198815D01*
X160349463Y-83295506D01*
X160290498Y-83405820D01*
X160254188Y-83525518D01*
X160241928Y-83650000D01*
X160241928Y-83684986D01*
X158230753Y-86733922D01*
X157960256Y-86914662D01*
X157704662Y-87170256D01*
X157503844Y-87470801D01*
X157365518Y-87804750D01*
X157295000Y-88159268D01*
X154060802Y-88159268D01*
X154086987Y-88119173D01*
X154176998Y-87895230D01*
X155302011Y-84041022D01*
X155346603Y-83803821D01*
X155343215Y-83481772D01*
X155277062Y-83166573D01*
X155150689Y-82870334D01*
X154968949Y-82604443D01*
X154738830Y-82379116D01*
X154469173Y-82203013D01*
X154170342Y-82082902D01*
X153853820Y-82023397D01*
X153531771Y-82026785D01*
X153216571Y-82092938D01*
X152920333Y-82219311D01*
X152654442Y-82401051D01*
X152435455Y-82624696D01*
X152331714Y-82498286D01*
X152082752Y-82293969D01*
X151798715Y-82142148D01*
X151490516Y-82048657D01*
X151250322Y-82025000D01*
X148710319Y-82025000D01*
X148630000Y-82017089D01*
X148549681Y-82025000D01*
X148549678Y-82025000D01*
X148309484Y-82048657D01*
X148001285Y-82142148D01*
X147717248Y-82293969D01*
X147485745Y-82483958D01*
X147470537Y-82455506D01*
X147391185Y-82358815D01*
X147294494Y-82279463D01*
X147184180Y-82220498D01*
X147064482Y-82184188D01*
X146940000Y-82171928D01*
X146774429Y-82171928D01*
X146718715Y-82142148D01*
X146410516Y-82048657D01*
X146090000Y-82017089D01*
X145769485Y-82048657D01*
X145461286Y-82142148D01*
X145405572Y-82171928D01*
X145240000Y-82171928D01*
X145115518Y-82184188D01*
X144995820Y-82220498D01*
X144885506Y-82279463D01*
X144788815Y-82358815D01*
X144709463Y-82455506D01*
X144650498Y-82565820D01*
X144614188Y-82685518D01*
X144601928Y-82810000D01*
X144601928Y-82975572D01*
X144572149Y-83031285D01*
X144478658Y-83339484D01*
X144455001Y-83579678D01*
X144455000Y-85789929D01*
X144454874Y-85949739D01*
X144470682Y-86029542D01*
X144478657Y-86110515D01*
X144501898Y-86187130D01*
X144517455Y-86265667D01*
X144548531Y-86340858D01*
X144555800Y-86364821D01*
X142835000Y-86364821D01*
X142835000Y-81762595D01*
X164918282Y-81762595D01*
X164962039Y-82081675D01*
X165067205Y-82386088D01*
X165160186Y-82560044D01*
X165424587Y-82655808D01*
X166380395Y-81700000D01*
X166739605Y-81700000D01*
X167695413Y-82655808D01*
X167959814Y-82560044D01*
X168100704Y-82270429D01*
X168182384Y-81958892D01*
X168201718Y-81637405D01*
X168157961Y-81318325D01*
X168052795Y-81013912D01*
X167959814Y-80839956D01*
X167695413Y-80744192D01*
X166739605Y-81700000D01*
X166380395Y-81700000D01*
X165424587Y-80744192D01*
X165160186Y-80839956D01*
X165019296Y-81129571D01*
X164937616Y-81441108D01*
X164918282Y-81762595D01*
X142835000Y-81762595D01*
X142835000Y-80305000D01*
X165698212Y-80305000D01*
X165604192Y-80564587D01*
M02*
